<?xml version="1.0" encoding="UTF-8" standalone="no"?>
<!DOCTYPE svg PUBLIC "-//W3C//DTD SVG 1.1//EN"
 "http://www.w3.org/Graphics/SVG/1.1/DTD/svg11.dtd">
<!-- Generated by graphviz version 8.1.0 (20230707.0739)
 -->
<!-- Title: decision Pages: 1 -->
<svg width="432pt" height="319pt"
 viewBox="0.00 0.00 432.47 318.70" xmlns="http://www.w3.org/2000/svg" xmlns:xlink="http://www.w3.org/1999/xlink">
<g id="graph0" class="graph" transform="scale(1 1) rotate(0) translate(21.6 297.1)">
<title>decision</title>
<!-- request -->
<g id="node1" class="node">
<title>request</title>
<ellipse fill="#eef2ff" stroke="#64748b" cx="179.02" cy="-257.5" rx="47.77" ry="18"/>
<text text-anchor="middle" x="179.02" y="-252.45" font-family="Arial" font-size="14.00" fill="#0f172a">Request</text>
</g>
<!-- handle -->
<g id="node2" class="node">
<title>handle</title>
<path fill="#dbeafe" stroke="#64748b" d="M252.27,-202.5C252.27,-202.5 105.77,-202.5 105.77,-202.5 99.77,-202.5 93.77,-196.5 93.77,-190.5 93.77,-190.5 93.77,-178.5 93.77,-178.5 93.77,-172.5 99.77,-166.5 105.77,-166.5 105.77,-166.5 252.27,-166.5 252.27,-166.5 258.27,-166.5 264.27,-172.5 264.27,-178.5 264.27,-178.5 264.27,-190.5 264.27,-190.5 264.27,-196.5 258.27,-202.5 252.27,-202.5"/>
<text text-anchor="middle" x="179.02" y="-179.45" font-family="Arial" font-size="14.00" fill="#0f172a">Service::handle(request)</text>
</g>
<!-- request&#45;&gt;handle -->
<g id="edge1" class="edge">
<title>request&#45;&gt;handle</title>
<path fill="none" stroke="#475569" d="M179.02,-239.31C179.02,-231.55 179.02,-222.18 179.02,-213.45"/>
<polygon fill="#475569" stroke="#475569" points="182.52,-213.53 179.02,-203.53 175.52,-213.53 182.52,-213.53"/>
</g>
<!-- choice -->
<g id="node3" class="node">
<title>choice</title>
<path fill="#fef3c7" stroke="#64748b" d="M167.08,-128.3C167.08,-128.3 11.94,-112.7 11.94,-112.7 5.97,-112.1 5.97,-110.9 11.94,-110.3 11.94,-110.3 167.08,-94.7 167.08,-94.7 173.05,-94.1 184.99,-94.1 190.96,-94.7 190.96,-94.7 346.1,-110.3 346.1,-110.3 352.07,-110.9 352.07,-112.1 346.1,-112.7 346.1,-112.7 190.96,-128.3 190.96,-128.3 184.99,-128.9 173.05,-128.9 167.08,-128.3"/>
<text text-anchor="middle" x="179.02" y="-106.45" font-family="Arial" font-size="14.00" fill="#0f172a">needs managed workflow?</text>
</g>
<!-- handle&#45;&gt;choice -->
<g id="edge2" class="edge">
<title>handle&#45;&gt;choice</title>
<path fill="none" stroke="#475569" d="M179.02,-166.31C179.02,-158.55 179.02,-149.18 179.02,-140.45"/>
<polygon fill="#475569" stroke="#475569" points="182.52,-140.53 179.02,-130.53 175.52,-140.53 182.52,-140.53"/>
</g>
<!-- reply -->
<g id="node4" class="node">
<title>reply</title>
<path fill="#dcfce7" stroke="#64748b" d="M135.52,-41C135.52,-41 14.52,-41 14.52,-41 8.52,-41 2.52,-35 2.52,-29 2.52,-29 2.52,-12 2.52,-12 2.52,-6 8.52,0 14.52,0 14.52,0 135.52,0 135.52,0 141.52,0 147.52,-6 147.52,-12 147.52,-12 147.52,-29 147.52,-29 147.52,-35 141.52,-41 135.52,-41"/>
<text text-anchor="middle" x="75.02" y="-23.7" font-family="Arial" font-size="14.00" fill="#0f172a">HandleResult::Reply</text>
<text text-anchor="middle" x="75.02" y="-7.2" font-family="Arial" font-size="14.00" fill="#0f172a">oneshot response</text>
</g>
<!-- choice&#45;&gt;reply -->
<g id="edge3" class="edge">
<title>choice&#45;&gt;reply</title>
<path fill="none" stroke="#475569" d="M160.91,-95C145.77,-82.04 123.84,-63.28 105.93,-47.95"/>
<polygon fill="#475569" stroke="#475569" points="108.9,-45.03 99.02,-41.18 104.34,-50.34 108.9,-45.03"/>
<text text-anchor="middle" x="146.77" y="-62.2" font-family="Arial" font-size="14.00" fill="#334155"> no</text>
</g>
<!-- task -->
<g id="node5" class="node">
<title>task</title>
<path fill="#f3e8ff" stroke="#64748b" d="M377.27,-41C377.27,-41 188.77,-41 188.77,-41 182.77,-41 176.77,-35 176.77,-29 176.77,-29 176.77,-12 176.77,-12 176.77,-6 182.77,0 188.77,0 188.77,0 377.27,0 377.27,0 383.27,0 389.27,-6 389.27,-12 389.27,-12 389.27,-29 389.27,-29 389.27,-35 383.27,-41 377.27,-41"/>
<text text-anchor="middle" x="283.02" y="-23.7" font-family="Arial" font-size="14.00" fill="#0f172a">HandleResult::Task(TaskSpec)</text>
<text text-anchor="middle" x="283.02" y="-7.2" font-family="Arial" font-size="14.00" fill="#0f172a">TaskSet poll + TaskExit</text>
</g>
<!-- choice&#45;&gt;task -->
<g id="edge4" class="edge">
<title>choice&#45;&gt;task</title>
<path fill="none" stroke="#475569" d="M197.14,-95C212.28,-82.04 234.21,-63.28 252.11,-47.95"/>
<polygon fill="#475569" stroke="#475569" points="253.7,-50.34 259.02,-41.18 249.15,-45.03 253.7,-50.34"/>
<text text-anchor="middle" x="250.15" y="-62.2" font-family="Arial" font-size="14.00" fill="#334155"> yes</text>
</g>
</g>
</svg>
