<svg xmlns="http://www.w3.org/2000/svg" xmlns:xlink="http://www.w3.org/1999/xlink" contentStyleType="text/css" height="866px" preserveAspectRatio="none" style="width:734px;height:866px;background:#F8FAFC;" version="1.1" viewBox="0 0 734 866" width="734px" zoomAndPan="magnify"><title>&#35270;&#22270; 2&#65306;Pool &#19982; Service &#36816;&#34892;&#23481;&#22120;</title><defs/><g><rect fill="#F8FAFC" height="866" style="stroke:none;stroke-width:1;" width="734" x="0" y="0"/><text fill="#000000" font-family="Microsoft YaHei" font-size="14" font-weight="bold" lengthAdjust="spacing" textLength="219.167" x="250.4165" y="24.8135">&#35270;&#22270; 2&#65306;Pool &#19982; Service &#36816;&#34892;&#23481;&#22120;</text><!--cluster Pool--><g id="cluster_Pool"><rect fill="#FFFFFF" height="721.77" rx="6" ry="6" style="stroke:#334155;stroke-width:1;" width="721" x="7" y="46.4775"/><text fill="#000000" font-family="Microsoft YaHei" font-size="14" font-weight="bold" lengthAdjust="spacing" textLength="376.1816" x="179.4092" y="63.291">PoolServices&lt;HashMap&lt;ServiceKind, ServiceEntry&gt;&gt;</text></g><!--cluster Entry--><g id="cluster_Entry"><rect fill="#FFFFFF" height="109.96" rx="6" ry="6" style="stroke:#334155;stroke-width:1;" width="673" x="31" y="187.4275"/><text fill="#000000" font-family="Microsoft YaHei" font-size="14" font-weight="bold" lengthAdjust="spacing" textLength="86.9531" x="324.0234" y="204.241">ServiceEntry</text></g><!--cluster Runtime--><g id="cluster_Runtime"><rect fill="#FFFFFF" height="379.86" rx="6" ry="6" style="stroke:#334155;stroke-width:1;" width="415" x="179" y="356.3875"/><text fill="#000000" font-family="Microsoft YaHei" font-size="14" font-weight="bold" lengthAdjust="spacing" textLength="260.0322" x="256.4839" y="373.201">ServiceRuntime&#65288;&#21807;&#19968; tokio::spawn&#65289;</text></g><!--entity Router--><g id="elem_Router"><rect fill="#FFFFFF" height="56.9551" rx="6" ry="6" style="stroke:#334155;stroke-width:0.5;" width="239.9668" x="23.02" y="83.4775"/><text fill="#000000" font-family="Microsoft YaHei" font-size="14" lengthAdjust="spacing" textLength="45.1719" x="33.02" y="108.291">Router</text><text fill="#000000" font-family="Microsoft YaHei" font-size="14" lengthAdjust="spacing" textLength="219.9668" x="33.02" y="126.7686">ServiceKind -&gt; CommandHandle</text></g><!--entity Control--><g id="elem_Control"><rect fill="#FFFFFF" height="56.9551" rx="6" ry="6" style="stroke:#334155;stroke-width:0.5;" width="117.8975" x="220.05" y="224.4275"/><text fill="#000000" font-family="Microsoft YaHei" font-size="14" lengthAdjust="spacing" textLength="97.8975" x="230.05" y="249.241">ControlHandle</text><text fill="#000000" font-family="Microsoft YaHei" font-size="14" lengthAdjust="spacing" textLength="56" x="230.05" y="267.7186">&#39640;&#20248;&#20808;&#32423;</text></g><!--entity Command--><g id="elem_Command"><rect fill="#FFFFFF" height="56.9551" rx="6" ry="6" style="stroke:#334155;stroke-width:0.5;" width="137.6396" x="47.18" y="224.4275"/><text fill="#000000" font-family="Microsoft YaHei" font-size="14" lengthAdjust="spacing" textLength="117.6396" x="57.18" y="249.241">CommandHandle</text><text fill="#000000" font-family="Microsoft YaHei" font-size="14" lengthAdjust="spacing" textLength="56" x="57.18" y="267.7186">&#19994;&#21153;&#35831;&#27714;</text></g><!--entity Observer--><g id="elem_Observer"><rect fill="#FFFFFF" height="56.9551" rx="6" ry="6" style="stroke:#334155;stroke-width:0.5;" width="128.6777" x="372.66" y="224.4275"/><text fill="#000000" font-family="Microsoft YaHei" font-size="14" lengthAdjust="spacing" textLength="108.165" x="382.66" y="249.241">ServiceObserver</text><text fill="#000000" font-family="Microsoft YaHei" font-size="14" lengthAdjust="spacing" textLength="108.6777" x="382.66" y="267.7186">&#29366;&#24577; + Task &#20107;&#20214;</text></g><!--entity Guard--><g id="elem_Guard"><rect fill="#FFFFFF" height="56.9551" rx="6" ry="6" style="stroke:#334155;stroke-width:0.5;" width="151.1885" x="536.41" y="224.4275"/><text fill="#000000" font-family="Microsoft YaHei" font-size="14" lengthAdjust="spacing" textLength="118.3506" x="546.41" y="249.241">ServiceTaskGuard</text><text fill="#000000" font-family="Microsoft YaHei" font-size="14" lengthAdjust="spacing" textLength="131.1885" x="546.41" y="267.7186">Drop =&gt; abort &#23487;&#20027;</text></g><!--entity Loop--><g id="elem_Loop"><rect fill="#FFFFFF" height="56.9551" rx="6" ry="6" style="stroke:#334155;stroke-width:0.5;" width="106.2559" x="231.87" y="401.3875"/><text fill="#000000" font-family="Microsoft YaHei" font-size="14" lengthAdjust="spacing" textLength="84" x="241.87" y="426.201">&#29983;&#21629;&#21608;&#26399;&#24490;&#29615;</text><text fill="#000000" font-family="Microsoft YaHei" font-size="14" lengthAdjust="spacing" textLength="86.2559" x="241.87" y="444.6786">biased select</text></g><!--entity Registry--><g id="elem_Registry"><rect fill="#FFFFFF" height="56.9551" rx="6" ry="6" style="stroke:#334155;stroke-width:0.5;" width="127.3789" x="221.31" y="519.3375"/><text fill="#000000" font-family="Microsoft YaHei" font-size="14" lengthAdjust="spacing" textLength="107.3789" x="231.31" y="544.151">HandlerRegistry</text><text fill="#000000" font-family="Microsoft YaHei" font-size="14" lengthAdjust="spacing" textLength="98.6289" x="231.31" y="562.6286">Kind -&gt; free fn</text></g><!--entity State--><g id="elem_State"><rect fill="#FFFFFF" height="56.9551" rx="6" ry="6" style="stroke:#334155;stroke-width:0.5;" width="99.5498" x="203.23" y="655.2975"/><text fill="#000000" font-family="Microsoft YaHei" font-size="14" lengthAdjust="spacing" textLength="66.3359" x="213.23" y="680.111">&#19994;&#21153; State</text><text fill="#000000" font-family="Microsoft YaHei" font-size="14" lengthAdjust="spacing" textLength="79.5498" x="213.23" y="698.5886">Service &#31169;&#26377;</text></g><!--entity Tasks--><g id="elem_Tasks"><rect fill="#FFFFFF" height="56.9551" rx="6" ry="6" style="stroke:#334155;stroke-width:0.5;" width="224.8389" x="337.58" y="655.2975"/><text fill="#000000" font-family="Microsoft YaHei" font-size="14" lengthAdjust="spacing" textLength="51.1055" x="347.58" y="680.111">TaskSet</text><text fill="#000000" font-family="Microsoft YaHei" font-size="14" lengthAdjust="spacing" textLength="204.8389" x="347.58" y="698.5886">HashMap + FuturesUnordered</text></g><g id="elem_GMN23"><path d="M327.22,815.2475 L327.22,859.563 A0,0 0 0 0 327.22,859.563 L572.7747,859.563 A0,0 0 0 0 572.7747,859.563 L572.7747,825.2475 L562.7747,815.2475 L454,815.2475 L450,712.5875 L446,815.2475 L327.22,815.2475 A0,0 0 0 0 327.22,815.2475 " fill="#FEFFDD" style="stroke:#181818;stroke-width:0.5;"/><path d="M562.7747,815.2475 L562.7747,825.2475 L572.7747,825.2475 L562.7747,815.2475 " fill="#FEFFDD" style="stroke:#181818;stroke-width:0.5;"/><text fill="#000000" font-family="Microsoft YaHei" font-size="13" lengthAdjust="spacing" textLength="224.5547" x="333.22" y="834.0029">&#19981;&#20026;&#27599;&#20010; workflow &#35843;&#29992; tokio::spawn</text><text fill="#000000" font-family="Microsoft YaHei" font-size="13" lengthAdjust="spacing" textLength="217.8516" x="333.22" y="851.1606">&#25152;&#26377; Future &#30001;&#23487;&#20027; Service &#32479;&#19968; poll</text></g><!--link Control to Loop--><g id="link_Control_Loop"><path d="M279.95,281.6275 C281.07,314.2975 282.7149,362.251 283.8349,394.991 " fill="none" id="Control-to-Loop" style="stroke:#181818;stroke-width:1;"/><polygon fill="#181818" points="284.04,400.9875,287.73,391.856,283.8691,395.9905,279.7346,392.1296,284.04,400.9875" style="stroke:#181818;stroke-width:1;"/></g><!--link Command to Loop--><g id="link_Command_Loop"><path d="M142.78,281.6275 C174.33,314.2975 222.2818,363.9317 253.9018,396.6717 " fill="none" id="Command-to-Loop" style="stroke:#181818;stroke-width:1;"/><polygon fill="#181818" points="258.07,400.9875,254.6949,391.735,254.5965,397.391,248.9405,397.2926,258.07,400.9875" style="stroke:#181818;stroke-width:1;"/></g><!--link Loop to Registry--><g id="link_Loop_Registry"><path d="M285,458.6375 C285,476.8675 285,494.6075 285,512.8675 " fill="none" id="Loop-to-Registry" style="stroke:#181818;stroke-width:1;"/><polygon fill="#181818" points="285,518.8675,289,509.8675,285,513.8675,281,509.8675,285,518.8675" style="stroke:#181818;stroke-width:1;"/></g><!--link Registry to State--><g id="link_Registry_State"><path d="M270.82,576.5475 C266.67,585.7875 262.57,596.2875 260,606.2975 C255.96,622.0575 254.487,634.1654 253.737,648.8054 " fill="none" id="Registry-to-State" style="stroke:#181818;stroke-width:1;"/><polygon fill="#181818" points="253.43,654.7975,257.8852,646.014,253.6858,649.8041,249.8957,645.6047,253.43,654.7975" style="stroke:#181818;stroke-width:1;"/></g><!--link Registry to Tasks--><g id="link_Registry_Tasks"><path d="M284.12,576.7475 C285.04,592.6275 288.77,611.9375 300,625.2975 C310.32,637.5675 318.2677,644.4194 332.6177,652.0194 " fill="none" id="Registry-to-Tasks" style="stroke:#181818;stroke-width:1;"/><polygon fill="#181818" points="337.92,654.8275,331.8387,647.0804,333.5014,652.4874,328.0945,654.1501,337.92,654.8275" style="stroke:#181818;stroke-width:1;"/><text fill="#000000" font-family="Microsoft YaHei" font-size="13" lengthAdjust="spacing" textLength="113.0454" x="301" y="621.0529">service.run(future)</text></g><!--link Tasks to Loop--><g id="link_Tasks_Loop"><path d="M440.01,655.0375 C434.39,640.3075 426.92,622.0375 419,606.2975 C398.65,565.8675 393.19,555.5275 366,519.3375 C349.86,497.8675 333.5943,479.8775 317.2843,463.0375 " fill="none" id="Tasks-to-Loop" style="stroke:#181818;stroke-width:1;"/><polygon fill="#181818" points="313.11,458.7275,316.4981,467.9753,316.5886,462.3191,322.2447,462.4096,313.11,458.7275" style="stroke:#181818;stroke-width:1;"/><text fill="#000000" font-family="Microsoft YaHei" font-size="13" lengthAdjust="spacing" textLength="128.9971" x="404" y="553.0729">completion message</text></g><!--link Loop to Observer--><g id="link_Loop_Observer"><path d="M300.25,401.2675 C310.86,383.1375 325.95,359.3575 342,340.3875 C360.15,318.9375 378.8721,301.526 397.8521,285.446 " fill="none" id="Loop-to-Observer" style="stroke:#181818;stroke-width:1;"/><polygon fill="#181818" points="402.43,281.5675,392.9775,284.3333,398.6151,284.7996,398.1487,290.4372,402.43,281.5675" style="stroke:#181818;stroke-width:1;"/></g><!--link Router to Command--><g id="link_Router_Command"><path d="M137.6,140.7375 C132.89,164.9775 127.2453,194.0579 122.5353,218.2779 " fill="none" id="Router-to-Command" style="stroke:#181818;stroke-width:1;"/><polygon fill="#181818" points="121.39,224.1675,127.0345,216.0966,122.3445,219.2595,119.1816,214.5695,121.39,224.1675" style="stroke:#181818;stroke-width:1;"/></g><!--link Guard to Runtime--><g id="link_Guard_Runtime"><path d="M607.88,281.6275 C604.27,305.9125 598.9125,341.96 594.4025,372.3088 C594.332,372.783 594.2618,373.2558 594.1917,373.7271 C594.1567,373.9628 595.0037,368.2633 594.9688,368.4982 " fill="none" id="Guard-to-Runtime" style="stroke:#181818;stroke-width:1;stroke-dasharray:7.0,7.0;"/><polygon fill="#181818" points="594.0868,374.4331,599.3663,366.1188,594.8218,369.4874,591.4532,364.9429,594.0868,374.4331" style="stroke:#181818;stroke-width:1;"/><text fill="#000000" font-family="Microsoft YaHei" font-size="13" lengthAdjust="spacing" textLength="117" x="603" y="328.1429">&#20445;&#35777;&#25972;&#20307;&#21487;&#24378;&#21046;&#37322;&#25918;</text></g><!--SRC=[TLHTJnD157tVNt63Bng51934DDX4gvL4GKFrmQGlq-visNHtffcPjI6613Gge8B4cY1Y24yGJAWa1cify6Vseppn5voTtPPjqIPjflUUS- -PS- -kC8M5eRtprljs0YFdhOqdb5hWDbOWXzaBioXpfv_Qsn-y_J_UrrsDbqrIGGpPK435SebHX-WPQb46LxAtidUocGH2nmPoB96bH4mX6yEaMMIKKqF0SpI1pGIIpo2TLarI0WDP72SoHMfNAC54vCIirCbmKI1IifAGRWnUQW3JaI96C8FX4HcuIvcEMQnnTFJcyDXO6BsaNdsqEKsxg3SGUX7RmCSd49-PH9NnEF3G9FgDZadtYM2pwVG080xAm51Aef1K9J3BamGN1jEGeRQDY3uXlnPMv0ZOIqxsK21rKYrwS1bfDADML2rFpdwikwrrxyrYqDnHj3X_cPOGaITkOyDRtcxNV_i7hsAQolVJObMF2rmUmhi5ouV-_09SXwU8by5jldUF3bM13kG_5KBu0mSnFK_kCLg1ssb01Se4UFkdRkD8bL1voP_xfpFJ3X6cZSzRYrwjxZRcGT2oILCfNa5LSjvQYfoDG9Tj2sfRtjgnjxRhRsvv9tl1IZrF2YRYM0UEBObJz4UKLlgPaMLi6fTCBYUI9vsv6WnZC4ZKDyxsaoEV8IUGmDt5W61dmT-C1AjCFoiqAuT5diJRAEtEEi9Xc3yZQj6nhiWXZYl3v4R7WuT1AKtT8nxfHI3yKV-wQZi75Osaz8HK0qW1ZuGFCOTSDPIIQrgKwnINeF0fjh0mAG4RSuvA-A9ZTpkYrLUnpigfiSFGKBexlHIufz_RzGN_oo_t-BEtMlTQJM_nyEpTibyxqGWL60fK26e3DM8JtCP7jz7qwwjkOm-gb9KDYrQX_VDrKDljsHJDNvgNviU6Gb0xY3Qm-oOCZhR2xQfGozAmj2ziznS0]--></g></svg>