<?xml version="1.0" encoding="us-ascii" standalone="no"?><svg xmlns="http://www.w3.org/2000/svg" xmlns:xlink="http://www.w3.org/1999/xlink" contentStyleType="text/css" height="570px" preserveAspectRatio="none" style="width:649px;height:570px;background:#FFFFFF;" version="1.1" viewBox="0 0 649 570" width="649px" zoomAndPan="magnify"><defs/><g><g id="UA"><rect fill="#F1F1F1" height="56.9551" rx="12.5" ry="12.5" style="stroke:#181818;stroke-width:0.5;" width="105" x="236.5" y="360.7"/><line style="stroke:#181818;stroke-width:0.5;" x1="236.5" x2="341.5" y1="407.6551" y2="407.6551"/><text fill="#000000" font-family="Microsoft YaHei" font-size="14" lengthAdjust="spacing" textLength="20" x="279" y="380.5135">UA</text><text fill="#000000" font-family="Microsoft YaHei" font-size="14" lengthAdjust="spacing" textLength="85" x="246.5" y="398.991">UP + ACTIVE</text></g><g id="DA"><rect fill="#F1F1F1" height="56.9551" rx="12.5" ry="12.5" style="stroke:#181818;stroke-width:0.5;" width="133" x="242.5" y="507.49"/><line style="stroke:#181818;stroke-width:0.5;" x1="242.5" x2="375.5" y1="554.4451" y2="554.4451"/><text fill="#000000" font-family="Microsoft YaHei" font-size="14" lengthAdjust="spacing" textLength="21" x="298.5" y="527.3035">DA</text><text fill="#000000" font-family="Microsoft YaHei" font-size="14" lengthAdjust="spacing" textLength="113" x="252.5" y="545.781">DOWN + ACTIVE</text></g><g id="DI"><rect fill="#F1F1F1" height="75.4326" rx="12.5" ry="12.5" style="stroke:#181818;stroke-width:0.5;" width="148" x="278" y="7"/><line style="stroke:#181818;stroke-width:0.5;" x1="278" x2="426" y1="72.4326" y2="72.4326"/><text fill="#000000" font-family="Microsoft YaHei" font-size="14" lengthAdjust="spacing" textLength="15" x="344.5" y="26.8135">DI</text><text fill="#000000" font-family="Microsoft YaHei" font-size="14" lengthAdjust="spacing" textLength="128" x="288" y="45.291">DOWN + INACTIVE</text><text fill="#000000" font-family="Microsoft YaHei" font-size="14" lengthAdjust="spacing" textLength="42" x="331" y="63.7686">&#25490;&#31354;&#20013;</text></g><g id="UI"><rect fill="#F1F1F1" height="75.4326" rx="12.5" ry="12.5" style="stroke:#181818;stroke-width:0.5;" width="120" x="97" y="178.43"/><line style="stroke:#181818;stroke-width:0.5;" x1="97" x2="217" y1="243.8626" y2="243.8626"/><text fill="#000000" font-family="Microsoft YaHei" font-size="14" lengthAdjust="spacing" textLength="14" x="150" y="198.2435">UI</text><text fill="#000000" font-family="Microsoft YaHei" font-size="14" lengthAdjust="spacing" textLength="100" x="107" y="216.721">UP + INACTIVE</text><text fill="#000000" font-family="Microsoft YaHei" font-size="14" lengthAdjust="spacing" textLength="84" x="115" y="235.1986">&#31561;&#24453;&#25490;&#31354;&#20572;&#27490;</text></g><g id="Removed"><rect fill="#F1F1F1" height="50" rx="12.5" ry="12.5" style="stroke:#181818;stroke-width:0.5;" width="90" x="464" y="191.15"/><line style="stroke:#181818;stroke-width:0.5;" x1="464" x2="554" y1="219.6275" y2="219.6275"/><text fill="#000000" font-family="Microsoft YaHei" font-size="14" lengthAdjust="spacing" textLength="70" x="474" y="210.9635">REMOVED</text></g><ellipse cx="292" cy="216.15" fill="#222222" rx="10" ry="10" style="stroke:#222222;stroke-width:1.0;"/><g id="elem_GMN16"><path d="M461.5,22.56 L461.5,40.72 L426.22,44.72 L461.5,48.72 L461.5,66.8754 A0,0 0 0 0 461.5,66.8754 L642.5,66.8754 A0,0 0 0 0 642.5,66.8754 L642.5,32.56 L632.5,22.56 L461.5,22.56 A0,0 0 0 0 461.5,22.56 " fill="#FEFFDD" style="stroke:#181818;stroke-width:0.5;"/><path d="M632.5,22.56 L632.5,32.56 L642.5,32.56 L632.5,22.56 " fill="#FEFFDD" style="stroke:#181818;stroke-width:0.5;"/><text fill="#000000" font-family="Microsoft YaHei" font-size="13" lengthAdjust="spacing" textLength="87" x="467.5" y="41.3154">DA -&gt; DI &#21487;&#36870;</text><text fill="#000000" font-family="Microsoft YaHei" font-size="13" lengthAdjust="spacing" textLength="160" x="467.5" y="58.4731">&#19981;&#20195;&#34920;&#24517;&#39035;&#36208;&#21040; REMOVED</text></g><g id="elem_GMN19"><path d="M6,349.86 L6,428.4909 L198,428.4909 L198,359.86 L188,349.86 L6,349.86 " fill="#FEFFDD" style="stroke:#181818;stroke-width:0.5;"/><path d="M188,349.86 L188,359.86 L198,359.86 L188,349.86 " fill="#FEFFDD" style="stroke:#181818;stroke-width:1.0;"/><text fill="#000000" font-family="Microsoft YaHei" font-size="13" lengthAdjust="spacing" textLength="152" x="12" y="368.6154">&#24050;&#25552;&#20132;BG remap&#20445;&#25345;&#19981;&#21464;</text><text fill="#000000" font-family="Microsoft YaHei" font-size="13" lengthAdjust="spacing" textLength="135" x="12" y="385.7731">&#22312;&#36884;BG&#21040;&#23433;&#20840;&#28857;&#21518;&#36820;&#22238;</text><text fill="#000000" font-family="Microsoft YaHei" font-size="13" lengthAdjust="spacing" textLength="109" x="12" y="402.9308">&#26410;&#35843;&#24230;BG&#19981;&#20877;&#21551;&#21160;</text><text fill="#000000" font-family="Microsoft YaHei" font-size="13" lengthAdjust="spacing" textLength="171" x="12" y="420.0885">&#26087;Future&#36864;&#20986;&#21518;&#25165;&#21551;&#21160;Online</text></g><g id="elem_GMN22"><path d="M448.5,367.02 L448.5,411.3354 A0,0 0 0 0 448.5,411.3354 L599.5,411.3354 A0,0 0 0 0 599.5,411.3354 L599.5,377.02 L589.5,367.02 L526.11,367.02 L511.12,241.29 L518.11,367.02 L448.5,367.02 A0,0 0 0 0 448.5,367.02 " fill="#FEFFDD" style="stroke:#181818;stroke-width:0.5;"/><path d="M589.5,367.02 L589.5,377.02 L599.5,377.02 L589.5,367.02 " fill="#FEFFDD" style="stroke:#181818;stroke-width:0.5;"/><text fill="#000000" font-family="Microsoft YaHei" font-size="13" lengthAdjust="spacing" textLength="130" x="454.5" y="385.7754">&#24403;&#21069;&#31034;&#20363;&#20013;&#30340;&#32456;&#23616;&#36793;&#30028;</text><text fill="#000000" font-family="Microsoft YaHei" font-size="13" lengthAdjust="spacing" textLength="130" x="454.5" y="402.9331">&#31934;&#30830;&#23450;&#20041;&#30041;&#32473;&#19987;&#39033;&#27969;&#31243;</text></g><!--link *start* to UA--><g id="link_*start*_UA"><path d="M291.83,226.59 C291.39,251.73 290.2856,315.0609 289.5956,354.2509 " fill="none" id="*start*-to-UA" style="stroke:#181818;stroke-width:1.0;"/><polygon fill="#181818" points="289.49,360.25,293.6478,351.3218,289.578,355.2508,285.6491,351.181,289.49,360.25" style="stroke:#181818;stroke-width:1.0;"/></g><!--link UA to DA--><g id="link_UA_DA"><path d="M292.86,418.1 C296.4,443.74 300.7984,475.5865 304.3384,501.1965 " fill="none" id="UA-to-DA" style="stroke:#181818;stroke-width:1.0;"/><polygon fill="#181818" points="305.16,507.14,307.89,497.6771,304.4754,502.1871,299.9653,498.7725,305.16,507.14" style="stroke:#181818;stroke-width:1.0;"/><text fill="#000000" font-family="Microsoft YaHei" font-size="13" lengthAdjust="spacing" textLength="62" x="302" y="473.2454">DiskDown</text></g><!--link DA to UA--><g id="link_DA_UA"><path d="M267.74,507.21 C258.55,498.84 250.05,488.82 245,477.49 C235.94,457.19 243.9328,439.486 257.5428,422.466 " fill="none" id="DA-to-UA" style="stroke:#181818;stroke-width:1.0;"/><polygon fill="#181818" points="261.29,417.78,252.5452,422.3109,258.1674,421.685,258.7933,427.3071,261.29,417.78" style="stroke:#181818;stroke-width:1.0;"/><text fill="#000000" font-family="Microsoft YaHei" font-size="13" lengthAdjust="spacing" textLength="44" x="246" y="473.2454">DiskUp</text></g><!--link DA to DI--><g id="link_DA_DI"><path d="M350.24,507.2 C359.43,498.83 367.93,488.81 373,477.49 C432.77,344.02 373.78,294.68 374,148.43 C374.02,132.43 376.54,128.23 374,112.43 C372.41,102.56 371.4461,97.8657 368.3361,88.3057 " fill="none" id="DA-to-DI" style="stroke:#181818;stroke-width:1.0;"/><polygon fill="#181818" points="366.48,82.6,365.4604,92.3959,368.0268,87.3547,373.068,89.9211,366.48,82.6" style="stroke:#181818;stroke-width:1.0;"/><text fill="#000000" font-family="Microsoft YaHei" font-size="13" lengthAdjust="spacing" textLength="67" x="397" y="307.1154">BeginDrain</text></g><!--link DI to UI--><g id="link_DI_UI"><path d="M277.54,48.97 C231.87,55.29 176.63,71.62 147,112.43 C133.42,131.13 134.4286,151.296 140.3986,172.426 " fill="none" id="DI-to-UI" style="stroke:#181818;stroke-width:1.0;"/><polygon fill="#181818" points="142.03,178.2,143.4323,168.4515,140.6705,173.3884,135.7337,170.6266,142.03,178.2" style="stroke:#181818;stroke-width:1.0;"/><text fill="#000000" font-family="Microsoft YaHei" font-size="13" lengthAdjust="spacing" textLength="90" x="161.5" y="127.1854">DiskMap = Up</text><text fill="#000000" font-family="Microsoft YaHei" font-size="13" lengthAdjust="spacing" textLength="117" x="148" y="144.3431">ObjectSlot&#35831;&#27714;&#26367;&#25442;</text></g><!--link UI to DI--><g id="link_UI_DI"><path d="M217.23,185.01 C235.13,174.66 254.18,162.18 270,148.43 C292.05,129.28 309.052,108.4748 324.042,87.5848 " fill="none" id="UI-to-DI" style="stroke:#181818;stroke-width:1.0;"/><polygon fill="#181818" points="327.54,82.71,319.0431,87.6902,324.625,86.7724,325.5429,92.3542,327.54,82.71" style="stroke:#181818;stroke-width:1.0;"/><text fill="#000000" font-family="Microsoft YaHei" font-size="13" lengthAdjust="spacing" textLength="62" x="304" y="135.6854">DiskDown</text></g><!--link UI to UA--><g id="link_UI_UA"><path d="M155.71,254.18 C156.7,275.08 160.95,300.76 174,319.86 C178.34,326.22 203.7527,341.3625 232.3227,357.3325 " fill="none" id="UI-to-UA" style="stroke:#181818;stroke-width:1.0;"/><polygon fill="#181818" points="237.56,360.26,231.6557,352.3771,233.1956,357.8204,227.7523,359.3602,237.56,360.26" style="stroke:#181818;stroke-width:1.0;"/><text fill="#000000" font-family="Microsoft YaHei" font-size="13" lengthAdjust="spacing" textLength="107" x="175" y="298.6154">&#26087;Offline&#31283;&#23450;&#36864;&#20986;</text><text fill="#000000" font-family="Microsoft YaHei" font-size="13" lengthAdjust="spacing" textLength="79" x="189" y="315.7731">&#26032;Online&#23436;&#25104;</text></g><!--link DI to Removed--><g id="link_DI_Removed"><path d="M392.33,82.75 C402.24,92.23 412.67,102.54 422,112.43 C446.37,138.27 468.6932,164.9778 485.8832,186.1978 " fill="none" id="DI-to-Removed" style="stroke:#181818;stroke-width:1.0;"/><polygon fill="#181818" points="489.66,190.86,487.103,181.3489,486.5127,186.9748,480.8867,186.3846,489.66,190.86" style="stroke:#181818;stroke-width:1.0;"/><text fill="#000000" font-family="Microsoft YaHei" font-size="13" lengthAdjust="spacing" textLength="100" x="455" y="135.6854">DrainCompleted</text></g><!--link UI to GMN19--><g id="link_UI_GMN19"><path d="M136.63,254.19 C131.99,263.66 127.43,273.97 124,283.86 C116.67,305.02 111.35,329.49 107.78,349.4 " fill="none" id="UI-GMN19" style="stroke:#181818;stroke-width:1.0;stroke-dasharray:7.0,7.0;"/></g><!--SRC=[TLBTJXD16BsVfvZqKiCBc6ZIib3tWjQWYp7YnK1dozhjp6PtAhS5BL9feH5G-T6aIBIQz0SCWRQnVPcTdVOjdErk5xtmRdFE-SxvpZVhv0nY8HlbuGfQpMLjMY2PMMfI6wwl6Gm39-8pM4S5ayrJmb8eZs5imLYrgKDr1f-XXzY8_QLrrb26hXia2tLaEXW0Xo4cHxJuCj4UmRimFlj4NPgBGUH0BJvb5SagwQUfVtdbbbSZNaq5YcNYxRuNFthkJJCGgr6K6aRTIaMpp0UbO81ld7hDis21Q6PnRY6zDATCq4MSfwzm1e3dTrx0cPa7_fvQVFAbnE4zg1XEJg7h12Zna0v1pPf2YYgX1CuQHB6H8PLge5H3vGAou7seMSialV8IhxB79cMZzhLtiUcT3Btg6T3KMvyeBmGdUTx7xsbTDms2HUCNRnsFYqN-jYUFyg6J9ZxCMnLlkpPD3ZlvRlv2ipHlcPZv9GcL_MqZkyOWrVqh-XKcoNolFIvk0VUcwlQ_ZkeDFYoDw_tHLOTlTs1uC8191leMeT4APOpcVITvMtvzwUtLtDvv8Wbjd4UME_piLJQa8T_x1FXfOrmyI2Ib6s-LUQaXDhkyjZiQ7l2JBy0x_JdglEQzRucahz-gybgRlsi0sNk-m0es3WhB0QySSa7l_syqVLV-Uv-Ng-AyvmvsvDyZZj-8_ZQ_A8u6NN5O0U9o8EejULAtMnQ7Hw9_vDxiZ-jTxsf3D7OY-py0]--></g></svg>