<?xml version="1.0" encoding="us-ascii" standalone="no"?><svg xmlns="http://www.w3.org/2000/svg" xmlns:xlink="http://www.w3.org/1999/xlink" contentStyleType="text/css" height="776px" preserveAspectRatio="none" style="width:2059px;height:776px;background:#FFFFFF;" version="1.1" viewBox="0 0 2059 776" width="2059px" zoomAndPan="magnify"><defs/><g><!--cluster Domain Service--><g id="cluster_Domain Service"><path d="M828.97,159.48 L937.97,159.48 A3.75,3.75 0 0 1 940.47,161.98 L947.47,183.9575 L1366.97,183.9575 A2.5,2.5 0 0 1 1369.47,186.4575 L1369.47,449.98 A2.5,2.5 0 0 1 1366.97,452.48 L828.97,452.48 A2.5,2.5 0 0 1 826.47,449.98 L826.47,161.98 A2.5,2.5 0 0 1 828.97,159.48 " fill="none" style="stroke:#000000;stroke-width:1.5;"/><line style="stroke:#000000;stroke-width:1.5;" x1="826.47" x2="947.47" y1="183.9575" y2="183.9575"/><text fill="#000000" font-family="Microsoft YaHei" font-size="14" font-weight="bold" lengthAdjust="spacing" textLength="108" x="830.47" y="176.2935">Domain Service</text></g><!--cluster Service Runtime--><g id="cluster_Service Runtime"><path d="M42.97,476.48 L156.97,476.48 A3.75,3.75 0 0 1 159.47,478.98 L166.47,500.9575 L1389.97,500.9575 A2.5,2.5 0 0 1 1392.47,503.4575 L1392.47,766.98 A2.5,2.5 0 0 1 1389.97,769.48 L42.97,769.48 A2.5,2.5 0 0 1 40.47,766.98 L40.47,478.98 A2.5,2.5 0 0 1 42.97,476.48 " fill="none" style="stroke:#000000;stroke-width:1.5;"/><line style="stroke:#000000;stroke-width:1.5;" x1="40.47" x2="166.47" y1="500.9575" y2="500.9575"/><text fill="#000000" font-family="Microsoft YaHei" font-size="14" font-weight="bold" lengthAdjust="spacing" textLength="113" x="44.47" y="493.2935">Service Runtime</text></g><!--entity Query--><g id="elem_Query"><rect fill="#F1F1F1" height="56.9551" rx="2.5" ry="2.5" style="stroke:#181818;stroke-width:0.5;" width="120" x="854.47" y="288"/><text fill="#000000" font-family="Microsoft YaHei" font-size="14" lengthAdjust="spacing" textLength="99" x="864.47" y="312.8135">Query async fn</text><text fill="#000000" font-family="Microsoft YaHei" font-size="14" lengthAdjust="spacing" textLength="100" x="864.47" y="331.291">&#19981;&#24378;&#21046;&#21019;&#24314;Task</text></g><!--entity Workflow--><g id="elem_Workflow"><rect fill="#F1F1F1" height="56.9551" rx="2.5" ry="2.5" style="stroke:#181818;stroke-width:0.5;" width="144" x="842.47" y="380"/><text fill="#000000" font-family="Microsoft YaHei" font-size="14" lengthAdjust="spacing" textLength="124" x="852.47" y="404.8135">Workflow async fn</text><text fill="#000000" font-family="Microsoft YaHei" font-size="14" lengthAdjust="spacing" textLength="84" x="852.47" y="423.291">&#33258;&#28982;&#19994;&#21153;&#32534;&#25490;</text></g><!--entity Policy--><g id="elem_Policy"><rect fill="#F1F1F1" height="56.9551" rx="2.5" ry="2.5" style="stroke:#181818;stroke-width:0.5;" width="118" x="855.47" y="196"/><text fill="#000000" font-family="Microsoft YaHei" font-size="14" lengthAdjust="spacing" textLength="98" x="865.47" y="220.8135">Domain Policy</text><text fill="#000000" font-family="Microsoft YaHei" font-size="14" lengthAdjust="spacing" textLength="91" x="865.47" y="239.291">key + conflict</text></g><!--entity State--><g id="elem_State"><path d="M1191.47,252.74 C1191.47,242.74 1272.47,242.74 1272.47,242.74 C1272.47,242.74 1353.47,242.74 1353.47,252.74 L1353.47,280.2175 C1353.47,290.2175 1272.47,290.2175 1272.47,290.2175 C1272.47,290.2175 1191.47,290.2175 1191.47,280.2175 L1191.47,252.74 " fill="#F1F1F1" style="stroke:#181818;stroke-width:0.5;"/><path d="M1191.47,252.74 C1191.47,262.74 1272.47,262.74 1272.47,262.74 C1272.47,262.74 1353.47,262.74 1353.47,252.74 " fill="none" style="stroke:#181818;stroke-width:0.5;"/><text fill="#000000" font-family="Microsoft YaHei" font-size="14" lengthAdjust="spacing" textLength="142" x="1201.47" y="281.5535">Private Domain State</text></g><!--entity Control--><g id="elem_Control"><rect fill="#F1F1F1" height="56.9551" rx="2.5" ry="2.5" style="stroke:#181818;stroke-width:0.5;" width="223" x="56.97" y="697"/><text fill="#000000" font-family="Microsoft YaHei" font-size="14" lengthAdjust="spacing" textLength="110" x="66.97" y="721.8135">Control Channel</text><text fill="#000000" font-family="Microsoft YaHei" font-size="14" lengthAdjust="spacing" textLength="203" x="66.97" y="740.291">Pause / Resume / Drain / Stop</text></g><!--entity Business--><g id="elem_Business"><rect fill="#F1F1F1" height="56.9551" rx="2.5" ry="2.5" style="stroke:#181818;stroke-width:0.5;" width="161" x="87.97" y="513"/><text fill="#000000" font-family="Microsoft YaHei" font-size="14" lengthAdjust="spacing" textLength="117" x="97.97" y="537.8135">Business Channel</text><text fill="#000000" font-family="Microsoft YaHei" font-size="14" lengthAdjust="spacing" textLength="141" x="97.97" y="556.291">Query / Call / Submit</text></g><!--entity Dispatch--><g id="elem_Dispatch"><rect fill="#F1F1F1" height="38.4775" rx="2.5" ry="2.5" style="stroke:#181818;stroke-width:0.5;" width="120" x="493.47" y="513.24"/><text fill="#000000" font-family="Microsoft YaHei" font-size="14" lengthAdjust="spacing" textLength="100" x="503.47" y="538.0535">Static Dispatch</text></g><!--entity Admission--><g id="elem_Admission"><rect fill="#F1F1F1" height="56.9551" rx="2.5" ry="2.5" style="stroke:#181818;stroke-width:0.5;" width="224" x="56.47" y="605"/><text fill="#000000" font-family="Microsoft YaHei" font-size="14" lengthAdjust="spacing" textLength="127" x="66.47" y="629.8135">Admission Registry</text><text fill="#000000" font-family="Microsoft YaHei" font-size="14" lengthAdjust="spacing" textLength="204" x="66.47" y="648.291">Join / Merge / Queue / Cancel</text></g><!--entity Futures--><g id="elem_Futures"><rect fill="#F1F1F1" height="56.9551" rx="2.5" ry="2.5" style="stroke:#181818;stroke-width:0.5;" width="110" x="498.47" y="664"/><text fill="#000000" font-family="Microsoft YaHei" font-size="14" lengthAdjust="spacing" textLength="90" x="508.47" y="688.8135">Workflow Set</text><text fill="#000000" font-family="Microsoft YaHei" font-size="14" lengthAdjust="spacing" textLength="79" x="508.47" y="707.291">poll Futures</text></g><!--entity Tasks--><g id="elem_Tasks"><rect fill="#F1F1F1" height="56.9551" rx="2.5" ry="2.5" style="stroke:#181818;stroke-width:0.5;" width="176" x="826.47" y="664"/><text fill="#000000" font-family="Microsoft YaHei" font-size="14" lengthAdjust="spacing" textLength="87" x="836.47" y="688.8135">Task Registry</text><text fill="#000000" font-family="Microsoft YaHei" font-size="14" lengthAdjust="spacing" textLength="156" x="836.47" y="707.291">Attempt + parent/child</text></g><!--entity Observation--><g id="elem_Observation"><rect fill="#F1F1F1" height="56.9551" rx="2.5" ry="2.5" style="stroke:#181818;stroke-width:0.5;" width="208" x="1168.47" y="632"/><text fill="#000000" font-family="Microsoft YaHei" font-size="14" lengthAdjust="spacing" textLength="81" x="1178.47" y="656.8135">Observation</text><text fill="#000000" font-family="Microsoft YaHei" font-size="14" lengthAdjust="spacing" textLength="188" x="1178.47" y="675.291">Idle/Busy + progress + trace</text></g><!--entity Developer--><g id="elem_Developer"><ellipse cx="553.47" cy="294.74" fill="#F1F1F1" rx="8" ry="8" style="stroke:#181818;stroke-width:0.5;"/><path d="M553.47,302.74 L553.47,329.74 M540.47,310.74 L566.47,310.74 M553.47,329.74 L540.47,344.74 M553.47,329.74 L566.47,344.74 " fill="none" style="stroke:#181818;stroke-width:0.5;"/><text fill="#000000" font-family="Microsoft YaHei" font-size="14" lengthAdjust="spacing" textLength="70" x="518.47" y="361.0535">&#19994;&#21153;&#24320;&#21457;&#32773;</text></g><!--entity Facade--><g id="elem_Facade"><rect fill="#F1F1F1" height="56.9551" rx="2.5" ry="2.5" style="stroke:#181818;stroke-width:0.5;" width="176" x="1184.47" y="7"/><text fill="#000000" font-family="Microsoft YaHei" font-size="14" lengthAdjust="spacing" textLength="156" x="1194.47" y="31.8135">Domain Service Facade</text><text fill="#000000" font-family="Microsoft YaHei" font-size="14" lengthAdjust="spacing" textLength="110" x="1194.47" y="50.291">named methods</text></g><!--entity Client--><g id="elem_Client"><rect fill="#F1F1F1" height="56.9551" rx="2.5" ry="2.5" style="stroke:#181818;stroke-width:0.5;" width="201" x="1439.47" y="7"/><text fill="#000000" font-family="Microsoft YaHei" font-size="14" lengthAdjust="spacing" textLength="131" x="1449.47" y="31.8135">Typed ServiceClient</text><text fill="#000000" font-family="Microsoft YaHei" font-size="14" lengthAdjust="spacing" textLength="181" x="1449.47" y="50.291">explicit instance + oneshot</text></g><!--entity Other--><g id="elem_Other"><rect fill="#F1F1F1" height="38.4775" rx="2.5" ry="2.5" style="stroke:#181818;stroke-width:0.5;" width="173" x="1880.47" y="16.24"/><text fill="#000000" font-family="Microsoft YaHei" font-size="14" lengthAdjust="spacing" textLength="153" x="1890.47" y="41.0535">Other Domain Services</text></g><g id="elem_GMN36"><path d="M420.47,399.32 L420.47,443.6354 A0,0 0 0 0 420.47,443.6354 L686.47,443.6354 A0,0 0 0 0 686.47,443.6354 L686.47,409.32 L676.47,399.32 L557.47,399.32 L553.47,365.1 L549.47,399.32 L420.47,399.32 A0,0 0 0 0 420.47,399.32 " fill="#FEFFDD" style="stroke:#181818;stroke-width:0.5;"/><path d="M676.47,399.32 L676.47,409.32 L686.47,409.32 L676.47,399.32 " fill="#FEFFDD" style="stroke:#181818;stroke-width:0.5;"/><text fill="#000000" font-family="Microsoft YaHei" font-size="13" lengthAdjust="spacing" textLength="245" x="426.47" y="418.0754">&#19981;&#32534;&#20889;TaskSpec&#12289;BoxFuture&#12289;move&#38381;&#21253;</text><text fill="#000000" font-family="Microsoft YaHei" font-size="13" lengthAdjust="spacing" textLength="230" x="426.47" y="435.2331">&#19981;&#31649;&#29702;channel&#12289;oneshot&#12289;JoinHandle</text></g><g id="elem_GMN39"><path d="M1187.47,99.32 L1187.47,143.6354 A0,0 0 0 0 1187.47,143.6354 L1268.47,143.6354 L1272.47,242.41 L1276.47,143.6354 L1357.47,143.6354 A0,0 0 0 0 1357.47,143.6354 L1357.47,109.32 L1347.47,99.32 L1187.47,99.32 A0,0 0 0 0 1187.47,99.32 " fill="#FEFFDD" style="stroke:#181818;stroke-width:0.5;"/><path d="M1347.47,99.32 L1347.47,109.32 L1357.47,109.32 L1347.47,99.32 " fill="#FEFFDD" style="stroke:#181818;stroke-width:0.5;"/><text fill="#000000" font-family="Microsoft YaHei" font-size="13" lengthAdjust="spacing" textLength="135" x="1193.47" y="118.0754">&#21482;&#26377;&#25152;&#23646;Service&#21487;&#20462;&#25913;</text><text fill="#000000" font-family="Microsoft YaHei" font-size="13" lengthAdjust="spacing" textLength="149" x="1193.47" y="135.2331">&#19981;&#24471;&#25226;&#21487;&#21464;&#35775;&#38382;&#36328;&#36807;await</text></g><g id="elem_GMN42"><path d="M105.97,416.32 L105.97,460.6354 L230.97,460.6354 L230.97,426.32 L220.97,416.32 L105.97,416.32 " fill="#FEFFDD" style="stroke:#181818;stroke-width:0.5;"/><path d="M220.97,416.32 L220.97,426.32 L230.97,426.32 L220.97,416.32 " fill="#FEFFDD" style="stroke:#181818;stroke-width:1.0;"/><text fill="#000000" font-family="Microsoft YaHei" font-size="13" lengthAdjust="spacing" textLength="78" x="111.97" y="435.0754">&#39046;&#22495;&#20915;&#23450;&#35821;&#20041;</text><text fill="#000000" font-family="Microsoft YaHei" font-size="13" lengthAdjust="spacing" textLength="104" x="111.97" y="452.2331">&#26694;&#26550;&#21407;&#23376;&#25191;&#34892;&#26426;&#21046;</text></g><!--link Developer to Query--><g id="link_Developer_Query"><path d="M588.96,327.28 C635.93,329.42 722.62,332.26 796.47,328.48 C815.23,327.52 829.653,326.3284 848.073,324.3884 " fill="none" id="Developer-to-Query" style="stroke:#181818;stroke-width:1.0;"/><polygon fill="#181818" points="854.04,323.76,844.6705,320.7247,849.0675,324.2837,845.5085,328.6807,854.04,323.76" style="stroke:#181818;stroke-width:1.0;"/><text fill="#000000" font-family="Microsoft YaHei" font-size="13" lengthAdjust="spacing" textLength="26" x="743.47" y="324.2354">&#32534;&#20889;</text></g><!--link Developer to Workflow--><g id="link_Developer_Workflow"><path d="M588.9,333.44 C646.99,346.87 759.7741,372.9488 836.3941,390.6588 " fill="none" id="Developer-to-Workflow" style="stroke:#181818;stroke-width:1.0;"/><polygon fill="#181818" points="842.24,392.01,834.372,386.0859,837.3684,390.884,832.5704,393.8804,842.24,392.01" style="stroke:#181818;stroke-width:1.0;"/><text fill="#000000" font-family="Microsoft YaHei" font-size="13" lengthAdjust="spacing" textLength="26" x="743.47" y="361.2354">&#32534;&#20889;</text></g><!--link Developer to Policy--><g id="link_Developer_Policy"><path d="M588.94,319.08 C636.24,309.95 723.7,291.78 796.47,269.48 C815.83,263.55 830.9686,258.1663 849.5186,250.9463 " fill="none" id="Developer-to-Policy" style="stroke:#181818;stroke-width:1.0;"/><polygon fill="#181818" points="855.11,248.77,845.272,248.3068,850.4505,250.5836,848.1737,255.762,855.11,248.77" style="stroke:#181818;stroke-width:1.0;"/><text fill="#000000" font-family="Microsoft YaHei" font-size="13" lengthAdjust="spacing" textLength="78" x="717.47" y="265.2354">&#22768;&#26126;&#19994;&#21153;&#35821;&#20041;</text></g><!--link Business to Dispatch--><g id="link_Business_Dispatch"><path d="M249.3,539.6 C321.97,537.9 421.6316,535.5502 487.1016,534.0202 " fill="none" id="Business-to-Dispatch" style="stroke:#181818;stroke-width:1.0;"/><polygon fill="#181818" points="493.1,533.88,484.009,530.0914,488.1014,533.9968,484.1959,538.0892,493.1,533.88" style="stroke:#181818;stroke-width:1.0;"/></g><!--link Control to Futures--><g id="link_Control_Futures"><path d="M280.35,722.54 C315.6,721.05 354.72,718.82 390.47,715.48 C426.54,712.11 460.9315,707.3133 492.3315,702.4233 " fill="none" id="Control-to-Futures" style="stroke:#181818;stroke-width:1.0;"/><polygon fill="#181818" points="498.26,701.5,488.7517,698.9325,493.3196,702.2694,489.9827,706.8373,498.26,701.5" style="stroke:#181818;stroke-width:1.0;"/><text fill="#000000" font-family="Microsoft YaHei" font-size="13" lengthAdjust="spacing" textLength="78" x="311.47" y="711.2354">&#25511;&#21046;&#29983;&#21629;&#21608;&#26399;</text></g><!--link Dispatch to Query--><g id="link_Dispatch_Query"><path d="M613.76,545.01 C668.55,552.83 748.51,554.07 796.47,508.48 C844.04,463.27 779.56,415.32 818.47,362.48 C827.49,350.23 835.2725,343.7512 848.9325,336.9912 " fill="none" id="Dispatch-to-Query" style="stroke:#181818;stroke-width:1.0;"/><polygon fill="#181818" points="854.31,334.33,844.4695,334.7368,849.8287,336.5477,848.0178,341.9068,854.31,334.33" style="stroke:#181818;stroke-width:1.0;"/></g><!--link Dispatch to Policy--><g id="link_Dispatch_Policy"><path d="M613.91,518.06 C670.22,501.14 752.51,467.34 796.47,406.48 C832.33,356.84 781.9,319.59 818.47,270.48 C827.78,257.99 835.9837,251.343 849.9937,244.533 " fill="none" id="Dispatch-to-Policy" style="stroke:#181818;stroke-width:1.0;"/><polygon fill="#181818" points="855.39,241.91,845.5469,242.247,850.8931,244.0959,849.0443,249.4421,855.39,241.91" style="stroke:#181818;stroke-width:1.0;"/><text fill="#000000" font-family="Microsoft YaHei" font-size="13" lengthAdjust="spacing" textLength="65" x="723.97" y="402.2354">&#24037;&#20316;&#27969;&#35831;&#27714;</text></g><!--link Policy to Admission--><g id="link_Policy_Admission"><path d="M855.37,212.19 C756.04,194.67 551.66,174.2 420.47,268.48 C294.74,358.84 391.08,479.14 280.47,587.48 C273.77,594.05 271.152,596.6715 262.882,601.5715 " fill="none" id="Policy-to-Admission" style="stroke:#181818;stroke-width:1.0;"/><polygon fill="#181818" points="257.72,604.63,267.5019,603.4836,262.0216,602.0813,263.4239,596.601,257.72,604.63" style="stroke:#181818;stroke-width:1.0;"/></g><!--link Admission to Futures--><g id="link_Admission_Futures"><path d="M280.67,651.77 C290.74,653.38 300.79,654.97 310.47,656.48 C374.9,666.53 443.1327,676.6049 492.2027,683.7549 " fill="none" id="Admission-to-Futures" style="stroke:#181818;stroke-width:1.0;"/><polygon fill="#181818" points="498.14,684.62,489.8108,679.3641,493.1922,683.8991,488.6573,687.2805,498.14,684.62" style="stroke:#181818;stroke-width:1.0;"/><text fill="#000000" font-family="Microsoft YaHei" font-size="13" lengthAdjust="spacing" textLength="26" x="337.47" y="652.2354">&#20934;&#20837;</text></g><!--link Futures to Workflow--><g id="link_Futures_Workflow"><path d="M608.87,679.02 C663.9,662.64 747.64,629.69 796.47,571.48 C818.53,545.19 800.44,526.67 818.47,497.48 C832.85,474.22 850.2308,456.8771 869.4408,441.0371 " fill="none" id="Futures-to-Workflow" style="stroke:#181818;stroke-width:1.0;"/><polygon fill="#181818" points="874.07,437.22,864.5814,439.8595,870.2123,440.4009,869.6709,446.0318,874.07,437.22" style="stroke:#181818;stroke-width:1.0;"/><text fill="#000000" font-family="Microsoft YaHei" font-size="13" lengthAdjust="spacing" textLength="22" x="745.47" y="567.2354">poll</text></g><!--link Workflow to State--><g id="link_Workflow_State"><path d="M986.66,380.09 C1052.3,353.9 1143.1269,317.6728 1205.2069,292.9128 " fill="none" id="Workflow-to-State" style="stroke:#181818;stroke-width:1.0;"/><polygon fill="#181818" points="1210.78,290.69,1200.9385,290.3088,1206.1358,292.5423,1203.9022,297.7395,1210.78,290.69" style="stroke:#181818;stroke-width:1.0;"/><text fill="#000000" font-family="Microsoft YaHei" font-size="13" lengthAdjust="spacing" textLength="78" x="1046.47" y="317.2354">&#30701;&#20020;&#30028;&#21306;&#35835;&#20889;</text></g><!--link Workflow to Facade--><g id="link_Workflow_Facade"><path d="M981.63,379.79 C989.23,374.74 996.42,368.98 1002.47,362.48 C1024.99,338.31 1016.87,323.6 1032.47,294.48 C1085.52,195.48 1083.39,154.8 1168.47,81.48 C1175.97,75.02 1179.2754,72.2523 1188.1654,67.2723 " fill="none" id="Workflow-to-Facade" style="stroke:#181818;stroke-width:1.0;"/><polygon fill="#181818" points="1193.4,64.34,1183.5932,65.2487,1189.0378,66.7836,1187.5029,72.2283,1193.4,64.34" style="stroke:#181818;stroke-width:1.0;"/><text fill="#000000" font-family="Microsoft YaHei" font-size="13" lengthAdjust="spacing" textLength="104" x="1033.47" y="107.2354">named capability</text></g><!--link Facade to Client--><g id="link_Facade_Client"><path d="M1360.78,35.48 C1385.86,35.48 1407.42,35.48 1433.2,35.48 " fill="none" id="Facade-to-Client" style="stroke:#181818;stroke-width:1.0;"/><polygon fill="#181818" points="1439.2,35.48,1430.2,31.48,1434.2,35.48,1430.2,39.48,1439.2,35.48" style="stroke:#181818;stroke-width:1.0;"/></g><!--link Client to Other--><g id="link_Client_Other"><path d="M1640.89,35.48 C1713.52,35.48 1804.82,35.48 1874,35.48 " fill="none" id="Client-to-Other" style="stroke:#181818;stroke-width:1.0;"/><polygon fill="#181818" points="1880,35.48,1871,31.48,1875,35.48,1871,39.48,1880,35.48" style="stroke:#181818;stroke-width:1.0;"/><text fill="#000000" font-family="Microsoft YaHei" font-size="13" lengthAdjust="spacing" textLength="178" x="1671.47" y="31.2354">context + stable cancellation</text></g><!--link Futures to Tasks--><g id="link_Futures_Tasks"><path d="M608.61,692.48 C666.2,692.48 752.17,692.48 820.05,692.48 " fill="none" id="Futures-to-Tasks" style="stroke:#181818;stroke-width:1.0;"/><polygon fill="#181818" points="826.05,692.48,817.05,688.48,821.05,692.48,817.05,696.48,826.05,692.48" style="stroke:#181818;stroke-width:1.0;"/></g><!--link Tasks to Observation--><g id="link_Tasks_Observation"><path d="M1002.56,684.65 C1052.58,680.16 1109.7241,675.0172 1162.2341,670.2972 " fill="none" id="Tasks-to-Observation" style="stroke:#181818;stroke-width:1.0;"/><polygon fill="#181818" points="1168.21,669.76,1158.888,666.5818,1163.2301,670.2076,1159.6042,674.5497,1168.21,669.76" style="stroke:#181818;stroke-width:1.0;"/></g><!--link Admission to Observation--><g id="link_Admission_Observation"><path d="M280.77,633.02 C315.87,633 354.79,633.1 390.47,633.48 C662.52,636.37 730.59,636.52 1002.47,646.48 C1057.15,648.48 1112.0492,651.2481 1162.0492,654.0181 " fill="none" id="Admission-to-Observation" style="stroke:#181818;stroke-width:1.0;"/><polygon fill="#181818" points="1168.04,654.35,1159.275,649.8583,1163.0477,654.0734,1158.8325,657.846,1168.04,654.35" style="stroke:#181818;stroke-width:1.0;"/></g><!--link Admission to GMN42--><g id="link_Admission_GMN42"><path d="M56.11,611.2 C38.8,601.86 24.38,588.65 17.47,569.98 C6.06,539.12 6,517.02 32.47,497.48 C54.42,481.28 81.51,468.38 105.72,458.83 " fill="none" id="Admission-GMN42" style="stroke:#181818;stroke-width:1.0;stroke-dasharray:7.0,7.0;"/></g><!--SRC=[TLLHJrit57w_lyBAQrNblG-JsY3KJUhAIgLfKbwSUvt4YgzzPVi2qJI9JYCKnA1CtUWwr8XDLQjAX5NRW58wVipYc_0lTcpV9FU2U05Vd-yxvzZVTnpLeJp14iUeWSDEIugKHpN1X4JBRQf9eARnY3HnolIyuFfB71DKUK13APHeQlGDlazefO1LRHo9PSfRg8cPAcO9HPm8JhXUr5r6a2IXnhp5IC089D82ITfgQnHH6w621m4EDNHJ6Pw-D9i7vdpLxEoELzSg22iqHvO84mcHGP10zxW5NSs965EE5ebSeY6fe6y3D2kAAb-bH7Q1s-KXQl8w7vx-QCxFpDDZy_Gty_7iCLOTbzhXojIlXUmqcLWkiCVhxqO_7FlMHkU_PDi_EV84MURddIq8HiDkdNT85zs2E6_2jtOy7m9MX3LkO0N7MP1q2Mk29iVIyE6mRXLyLpXvVcJqAEMQnjUFNWFbf62eriQS4rRd2pY54bNqYAWqjeivQMjK8RT8N96SKivpBrMK4wLcYVobLb4DCsRfQIEc_aGJR3c3xPs6Q8wg1EkmxRNCFyh8kr5CbG8VG9CjghI4Y_j2k2OV4DcoJKFnbBZYF2JCvPgoRX1maUWwJmGqEv_gL1BbMFcwpB66ADI-gpM94mt2WPq1K0tRb4MERf5No0yR2ZJ1riTr_dd4I1NkmwgUID6IzWfl8Irnw1KjeAskrvqp4NWUXpWYTSvX32CK4zqMKNu45obI7tSJmEJC6gEmMUTa9G6ZKOqeLzfU6_G1UDKMNZMFAwPvgDj4ed8VlgIB1C5q5D7jsv_vwK5t4Co4wVrw9JYLuOQudmA8cZ_-p5vi- -aQ7nqEFsm4K-zPuDGo4sVRpLn5e6VRRs2kHy_xPlUJsNsRxVU32MFMP7bhLlhazV3JVlRFa_7HIVR- -o0FMCpCN3DpbWkRzPvPUnrCDgwSsVekc7xRe1jbUnlzm-7ftwEVjypMsVZeexsP4iwh2q0lV8WJtA2CwcwGHomeryx_SpjUkplsgT5anNeNH6_0unkwYM7USSLklPNTNv-XuCpoeOkHW0iuHaDeBM8aceNN6HvPhxHDkPYGyB_L9_V4YYy9wrWiaSkzGxErvg23Wz6pNkWV5uZcpeILdVpxcCCW1OH7oDQxLjM_YsRdNRQ_aMsiclUlShkQdQFXnI1x_i7MCF_kPPkRi6LsNem75vTxW_79s_75Ebx6LD-SVARzvUyzq- -Rtbzcy3BtPdRGoruTc-s-ENoMRRmP7snb-_QNPPhkVm00]--></g></svg>