<?xml version="1.0" encoding="us-ascii" standalone="no"?><svg xmlns="http://www.w3.org/2000/svg" xmlns:xlink="http://www.w3.org/1999/xlink" contentStyleType="text/css" height="857px" preserveAspectRatio="none" style="width:2230px;height:857px;background:#FFFFFF;" version="1.1" viewBox="0 0 2230 857" width="2230px" zoomAndPan="magnify"><defs/><g><!--cluster Domain Service--><g id="cluster_Domain Service"><path d="M942.83,159.48 L1051.83,159.48 A3.75,3.75 0 0 1 1054.33,161.98 L1061.33,183.9575 L1560.83,183.9575 A2.5,2.5 0 0 1 1563.33,186.4575 L1563.33,449.98 A2.5,2.5 0 0 1 1560.83,452.48 L942.83,452.48 A2.5,2.5 0 0 1 940.33,449.98 L940.33,161.98 A2.5,2.5 0 0 1 942.83,159.48 " fill="none" style="stroke:#000000;stroke-width:1.5;"/><line style="stroke:#000000;stroke-width:1.5;" x1="940.33" x2="1061.33" y1="183.9575" y2="183.9575"/><text fill="#000000" font-family="Microsoft YaHei" font-size="14" font-weight="bold" lengthAdjust="spacing" textLength="108" x="944.33" y="176.2935">Domain Service</text></g><!--cluster Service Runtime--><g id="cluster_Service Runtime"><path d="M42.83,476.48 L156.83,476.48 A3.75,3.75 0 0 1 159.33,478.98 L166.33,500.9575 L1532.33,500.9575 A2.5,2.5 0 0 1 1534.83,503.4575 L1534.83,766.98 A2.5,2.5 0 0 1 1532.33,769.48 L42.83,769.48 A2.5,2.5 0 0 1 40.33,766.98 L40.33,478.98 A2.5,2.5 0 0 1 42.83,476.48 " fill="none" style="stroke:#000000;stroke-width:1.5;"/><line style="stroke:#000000;stroke-width:1.5;" x1="40.33" x2="166.33" y1="500.9575" y2="500.9575"/><text fill="#000000" font-family="Microsoft YaHei" font-size="14" font-weight="bold" lengthAdjust="spacing" textLength="113" x="44.33" y="493.2935">Service Runtime</text></g><!--entity Object--><g id="elem_Object"><rect fill="#F1F1F1" height="56.9551" rx="2.5" ry="2.5" style="stroke:#181818;stroke-width:0.5;" width="122" x="967.33" y="196"/><text fill="#000000" font-family="Microsoft YaHei" font-size="14" lengthAdjust="spacing" textLength="102" x="977.33" y="220.8135">Domain Object</text><text fill="#000000" font-family="Microsoft YaHei" font-size="14" lengthAdjust="spacing" textLength="98" x="977.33" y="239.291">&#23436;&#25972;&#19994;&#21153;&#20803;&#25968;&#25454;</text></g><!--entity Machine--><g id="elem_Machine"><rect fill="#F1F1F1" height="56.9551" rx="2.5" ry="2.5" style="stroke:#181818;stroke-width:0.5;" width="265" x="1282.33" y="269"/><text fill="#000000" font-family="Microsoft YaHei" font-size="14" lengthAdjust="spacing" textLength="97" x="1292.33" y="293.8135">State Machine</text><text fill="#000000" font-family="Microsoft YaHei" font-size="14" lengthAdjust="spacing" textLength="245" x="1292.33" y="312.291">Transition::to(...).change(...).ensure(...)</text></g><!--entity Query--><g id="elem_Query"><rect fill="#F1F1F1" height="56.9551" rx="2.5" ry="2.5" style="stroke:#181818;stroke-width:0.5;" width="120" x="968.33" y="288"/><text fill="#000000" font-family="Microsoft YaHei" font-size="14" lengthAdjust="spacing" textLength="99" x="978.33" y="312.8135">Query async fn</text><text fill="#000000" font-family="Microsoft YaHei" font-size="14" lengthAdjust="spacing" textLength="100" x="978.33" y="331.291">&#19981;&#24378;&#21046;&#21019;&#24314;Task</text></g><!--entity Workflow--><g id="elem_Workflow"><rect fill="#F1F1F1" height="56.9551" rx="2.5" ry="2.5" style="stroke:#181818;stroke-width:0.5;" width="144" x="956.33" y="380"/><text fill="#000000" font-family="Microsoft YaHei" font-size="14" lengthAdjust="spacing" textLength="124" x="966.33" y="404.8135">Workflow async fn</text><text fill="#000000" font-family="Microsoft YaHei" font-size="14" lengthAdjust="spacing" textLength="84" x="966.33" y="423.291">&#33258;&#28982;&#19994;&#21153;&#32534;&#25490;</text></g><!--entity State--><g id="elem_State"><path d="M1333.83,381.74 C1333.83,371.74 1414.83,371.74 1414.83,371.74 C1414.83,371.74 1495.83,371.74 1495.83,381.74 L1495.83,409.2175 C1495.83,419.2175 1414.83,419.2175 1414.83,419.2175 C1414.83,419.2175 1333.83,419.2175 1333.83,409.2175 L1333.83,381.74 " fill="#F1F1F1" style="stroke:#181818;stroke-width:0.5;"/><path d="M1333.83,381.74 C1333.83,391.74 1414.83,391.74 1414.83,391.74 C1414.83,391.74 1495.83,391.74 1495.83,381.74 " fill="none" style="stroke:#181818;stroke-width:0.5;"/><text fill="#000000" font-family="Microsoft YaHei" font-size="14" lengthAdjust="spacing" textLength="142" x="1343.83" y="410.5535">Private Domain State</text></g><!--entity Control--><g id="elem_Control"><rect fill="#F1F1F1" height="56.9551" rx="2.5" ry="2.5" style="stroke:#181818;stroke-width:0.5;" width="223" x="56.33" y="605"/><text fill="#000000" font-family="Microsoft YaHei" font-size="14" lengthAdjust="spacing" textLength="110" x="66.33" y="629.8135">Control Channel</text><text fill="#000000" font-family="Microsoft YaHei" font-size="14" lengthAdjust="spacing" textLength="203" x="66.33" y="648.291">Pause / Resume / Drain / Stop</text></g><!--entity Business--><g id="elem_Business"><rect fill="#F1F1F1" height="56.9551" rx="2.5" ry="2.5" style="stroke:#181818;stroke-width:0.5;" width="161" x="87.33" y="513"/><text fill="#000000" font-family="Microsoft YaHei" font-size="14" lengthAdjust="spacing" textLength="117" x="97.33" y="537.8135">Business Channel</text><text fill="#000000" font-family="Microsoft YaHei" font-size="14" lengthAdjust="spacing" textLength="141" x="97.33" y="556.291">Query / Call / Submit</text></g><!--entity Dispatch--><g id="elem_Dispatch"><rect fill="#F1F1F1" height="38.4775" rx="2.5" ry="2.5" style="stroke:#181818;stroke-width:0.5;" width="120" x="536.33" y="513.24"/><text fill="#000000" font-family="Microsoft YaHei" font-size="14" lengthAdjust="spacing" textLength="100" x="546.33" y="538.0535">Static Dispatch</text></g><!--entity ActorCell--><g id="elem_ActorCell"><rect fill="#F1F1F1" height="56.9551" rx="2.5" ry="2.5" style="stroke:#181818;stroke-width:0.5;" width="219" x="58.33" y="697"/><text fill="#000000" font-family="Microsoft YaHei" font-size="14" lengthAdjust="spacing" textLength="178" x="68.33" y="721.8135">ActorCell Registry (private)</text><text fill="#000000" font-family="Microsoft YaHei" font-size="14" lengthAdjust="spacing" textLength="199" x="68.33" y="740.291">Start / Join / Replace / Queue</text></g><!--entity Futures--><g id="elem_Futures"><rect fill="#F1F1F1" height="56.9551" rx="2.5" ry="2.5" style="stroke:#181818;stroke-width:0.5;" width="110" x="541.33" y="597"/><text fill="#000000" font-family="Microsoft YaHei" font-size="14" lengthAdjust="spacing" textLength="90" x="551.33" y="621.8135">Workflow Set</text><text fill="#000000" font-family="Microsoft YaHei" font-size="14" lengthAdjust="spacing" textLength="79" x="551.33" y="640.291">poll Futures</text></g><!--entity Tasks--><g id="elem_Tasks"><rect fill="#F1F1F1" height="56.9551" rx="2.5" ry="2.5" style="stroke:#181818;stroke-width:0.5;" width="176" x="940.33" y="605"/><text fill="#000000" font-family="Microsoft YaHei" font-size="14" lengthAdjust="spacing" textLength="87" x="950.33" y="629.8135">Task Registry</text><text fill="#000000" font-family="Microsoft YaHei" font-size="14" lengthAdjust="spacing" textLength="156" x="950.33" y="648.291">Attempt + parent/child</text></g><!--entity Observation--><g id="elem_Observation"><rect fill="#F1F1F1" height="56.9551" rx="2.5" ry="2.5" style="stroke:#181818;stroke-width:0.5;" width="208" x="1310.83" y="642"/><text fill="#000000" font-family="Microsoft YaHei" font-size="14" lengthAdjust="spacing" textLength="81" x="1320.83" y="666.8135">Observation</text><text fill="#000000" font-family="Microsoft YaHei" font-size="14" lengthAdjust="spacing" textLength="188" x="1320.83" y="685.291">Idle/Busy + progress + trace</text></g><!--entity Developer--><g id="elem_Developer"><ellipse cx="596.33" cy="231.74" fill="#F1F1F1" rx="8" ry="8" style="stroke:#181818;stroke-width:0.5;"/><path d="M596.33,239.74 L596.33,266.74 M583.33,247.74 L609.33,247.74 M596.33,266.74 L583.33,281.74 M596.33,266.74 L609.33,281.74 " fill="none" style="stroke:#181818;stroke-width:0.5;"/><text fill="#000000" font-family="Microsoft YaHei" font-size="14" lengthAdjust="spacing" textLength="70" x="561.33" y="298.0535">&#19994;&#21153;&#24320;&#21457;&#32773;</text></g><!--entity Facade--><g id="elem_Facade"><rect fill="#F1F1F1" height="56.9551" rx="2.5" ry="2.5" style="stroke:#181818;stroke-width:0.5;" width="176" x="1326.83" y="7"/><text fill="#000000" font-family="Microsoft YaHei" font-size="14" lengthAdjust="spacing" textLength="156" x="1336.83" y="31.8135">Domain Service Facade</text><text fill="#000000" font-family="Microsoft YaHei" font-size="14" lengthAdjust="spacing" textLength="110" x="1336.83" y="50.291">named methods</text></g><!--entity Client--><g id="elem_Client"><rect fill="#F1F1F1" height="56.9551" rx="2.5" ry="2.5" style="stroke:#181818;stroke-width:0.5;" width="201" x="1610.33" y="7"/><text fill="#000000" font-family="Microsoft YaHei" font-size="14" lengthAdjust="spacing" textLength="131" x="1620.33" y="31.8135">Typed ServiceClient</text><text fill="#000000" font-family="Microsoft YaHei" font-size="14" lengthAdjust="spacing" textLength="181" x="1620.33" y="50.291">explicit instance + oneshot</text></g><!--entity Other--><g id="elem_Other"><rect fill="#F1F1F1" height="38.4775" rx="2.5" ry="2.5" style="stroke:#181818;stroke-width:0.5;" width="173" x="2051.33" y="16.24"/><text fill="#000000" font-family="Microsoft YaHei" font-size="14" lengthAdjust="spacing" textLength="153" x="2061.33" y="41.0535">Other Domain Services</text></g><g id="elem_GMN39"><path d="M463.33,336.74 L463.33,398.2131 A0,0 0 0 0 463.33,398.2131 L729.33,398.2131 A0,0 0 0 0 729.33,398.2131 L729.33,346.74 L719.33,336.74 L600.33,336.74 L596.33,301.99 L592.33,336.74 L463.33,336.74 A0,0 0 0 0 463.33,336.74 " fill="#FEFFDD" style="stroke:#181818;stroke-width:0.5;"/><path d="M719.33,336.74 L719.33,346.74 L729.33,346.74 L719.33,336.74 " fill="#FEFFDD" style="stroke:#181818;stroke-width:0.5;"/><text fill="#000000" font-family="Microsoft YaHei" font-size="13" lengthAdjust="spacing" textLength="245" x="469.33" y="355.4954">&#19981;&#32534;&#20889;TaskSpec&#12289;BoxFuture&#12289;move&#38381;&#21253;</text><text fill="#000000" font-family="Microsoft YaHei" font-size="13" lengthAdjust="spacing" textLength="230" x="469.33" y="372.6531">&#19981;&#31649;&#29702;channel&#12289;oneshot&#12289;JoinHandle</text><text fill="#000000" font-family="Microsoft YaHei" font-size="13" lengthAdjust="spacing" textLength="164" x="469.33" y="389.8108">&#19981;&#23454;&#29616;Actor&#25110;&#35835;&#21462;&#22312;&#36884;&#27963;&#21160;</text></g><g id="elem_GMN42"><path d="M1329.83,99.32 L1329.83,143.6354 L1499.83,143.6354 L1499.83,109.32 L1489.83,99.32 L1329.83,99.32 " fill="#FEFFDD" style="stroke:#181818;stroke-width:0.5;"/><path d="M1489.83,99.32 L1489.83,109.32 L1499.83,109.32 L1489.83,99.32 " fill="#FEFFDD" style="stroke:#181818;stroke-width:1.0;"/><text fill="#000000" font-family="Microsoft YaHei" font-size="13" lengthAdjust="spacing" textLength="135" x="1335.83" y="118.0754">&#21482;&#26377;&#25152;&#23646;Service&#21487;&#20462;&#25913;</text><text fill="#000000" font-family="Microsoft YaHei" font-size="13" lengthAdjust="spacing" textLength="149" x="1335.83" y="135.2331">&#19981;&#24471;&#25226;&#21487;&#21464;&#35775;&#38382;&#36328;&#36807;await</text></g><g id="elem_GMN45"><path d="M74.33,398.74 L74.33,460.2131 L261.33,460.2131 L261.33,408.74 L251.33,398.74 L74.33,398.74 " fill="#FEFFDD" style="stroke:#181818;stroke-width:0.5;"/><path d="M251.33,398.74 L251.33,408.74 L261.33,408.74 L251.33,398.74 " fill="#FEFFDD" style="stroke:#181818;stroke-width:1.0;"/><text fill="#000000" font-family="Microsoft YaHei" font-size="13" lengthAdjust="spacing" textLength="116" x="80.33" y="417.4954">&#23436;&#20840;&#38544;&#34255;&#22312;Runtime</text><text fill="#000000" font-family="Microsoft YaHei" font-size="13" lengthAdjust="spacing" textLength="166" x="80.33" y="434.6531">&#19968;&#20010;&#23545;&#35937;&#19981;&#26159;&#19968;&#20010;Tokio task</text><text fill="#000000" font-family="Microsoft YaHei" font-size="13" lengthAdjust="spacing" textLength="117" x="80.33" y="451.8108">&#19981;&#20445;&#23384;&#19994;&#21153;&#29366;&#24577;&#21103;&#26412;</text></g><!--link Developer to Query--><g id="link_Developer_Query"><path d="M631.79,266.81 C705.03,276 870.9567,296.8425 962.1467,308.2925 " fill="none" id="Developer-to-Query" style="stroke:#181818;stroke-width:1.0;"/><polygon fill="#181818" points="968.1,309.04,959.6685,303.9499,963.139,308.4171,958.6718,311.8876,968.1,309.04" style="stroke:#181818;stroke-width:1.0;"/><text fill="#000000" font-family="Microsoft YaHei" font-size="13" lengthAdjust="spacing" textLength="26" x="821.83" y="279.2354">&#32534;&#20889;</text></g><!--link Developer to Workflow--><g id="link_Developer_Workflow"><path d="M631.72,277.62 C664.26,291.68 714.64,312.75 759.33,328.48 C825.17,351.66 895.7907,372.4177 950.1307,387.5777 " fill="none" id="Developer-to-Workflow" style="stroke:#181818;stroke-width:1.0;"/><polygon fill="#181818" points="955.91,389.19,948.3159,382.9186,951.0939,387.8464,946.1662,390.6244,955.91,389.19" style="stroke:#181818;stroke-width:1.0;"/><text fill="#000000" font-family="Microsoft YaHei" font-size="13" lengthAdjust="spacing" textLength="26" x="821.83" y="324.2354">&#32534;&#20889;</text></g><!--link Developer to Object--><g id="link_Developer_Object"><path d="M631.79,259.43 C704.73,252.99 869.5333,238.418 961.0033,230.338 " fill="none" id="Developer-to-Object" style="stroke:#181818;stroke-width:1.0;"/><polygon fill="#181818" points="966.98,229.81,957.6629,226.6174,961.9994,230.25,958.3669,234.5864,966.98,229.81" style="stroke:#181818;stroke-width:1.0;"/><text fill="#000000" font-family="Microsoft YaHei" font-size="13" lengthAdjust="spacing" textLength="26" x="821.83" y="232.2354">&#32534;&#20889;</text></g><!--link Developer to Machine--><g id="link_Developer_Machine"><path d="M631.66,244.03 C731.14,193.16 1026.84,60.35 1252.33,148.48 C1313.98,172.57 1362.6211,227.6642 1389.9111,263.7542 " fill="none" id="Developer-to-Machine" style="stroke:#181818;stroke-width:1.0;"/><polygon fill="#181818" points="1393.53,268.54,1391.2923,258.9487,1390.5143,264.5518,1384.9112,263.7739,1393.53,268.54" style="stroke:#181818;stroke-width:1.0;"/><text fill="#000000" font-family="Microsoft YaHei" font-size="13" lengthAdjust="spacing" textLength="26" x="1015.33" y="115.2354">&#32534;&#20889;</text></g><!--link Business to Dispatch--><g id="link_Business_Dispatch"><path d="M248.55,539.8 C331.97,538.04 455.0113,535.4365 529.9213,533.8565 " fill="none" id="Business-to-Dispatch" style="stroke:#181818;stroke-width:1.0;"/><polygon fill="#181818" points="535.92,533.73,526.8377,529.9207,530.9211,533.8354,527.0064,537.9189,535.92,533.73" style="stroke:#181818;stroke-width:1.0;"/></g><!--link Control to Futures--><g id="link_Control_Futures"><path d="M279.77,631.4 C363.69,629.82 469.3111,627.8426 534.8311,626.6126 " fill="none" id="Control-to-Futures" style="stroke:#181818;stroke-width:1.0;"/><polygon fill="#181818" points="540.83,626.5,531.7565,622.6696,535.8309,626.5938,531.9067,630.6682,540.83,626.5" style="stroke:#181818;stroke-width:1.0;"/><text fill="#000000" font-family="Microsoft YaHei" font-size="13" lengthAdjust="spacing" textLength="78" x="332.33" y="624.2354">&#25511;&#21046;&#29983;&#21629;&#21608;&#26399;</text></g><!--link Dispatch to Query--><g id="link_Dispatch_Query"><path d="M649.94,512.77 C714.23,487.47 824.97,439.92 910.33,382.48 C921.29,375.1 921.38,369.88 932.33,362.48 C943.34,355.04 950.3696,350.8157 962.4796,344.7257 " fill="none" id="Dispatch-to-Query" style="stroke:#181818;stroke-width:1.0;"/><polygon fill="#181818" points="967.84,342.03,958.0024,342.4999,963.373,344.2764,961.5966,349.6471,967.84,342.03" style="stroke:#181818;stroke-width:1.0;"/></g><!--link Dispatch to Machine--><g id="link_Dispatch_Machine"><path d="M656.39,540.9 C783.63,555.46 1085.61,570.16 1252.33,412.48 C1273.42,392.54 1261.12,374.29 1282.33,354.48 C1294.42,343.18 1303.7413,336.589 1318.8513,329.049 " fill="none" id="Dispatch-to-Machine" style="stroke:#181818;stroke-width:1.0;"/><polygon fill="#181818" points="1324.22,326.37,1314.3809,326.8094,1319.7461,328.6025,1317.953,333.9677,1324.22,326.37" style="stroke:#181818;stroke-width:1.0;"/><text fill="#000000" font-family="Microsoft YaHei" font-size="13" lengthAdjust="spacing" textLength="82" x="987.33" y="495.2354">state + event</text></g><!--link Object to Machine--><g id="link_Object_Machine"><path d="M1089.58,239.73 C1107.76,244.1 1127.81,248.71 1146.33,252.48 C1190.29,261.42 1232.6406,268.9598 1275.9406,276.1298 " fill="none" id="Object-to-Machine" style="stroke:#181818;stroke-width:1.0;"/><polygon fill="#181818" points="1281.86,277.11,1273.6344,271.6935,1276.9272,276.2932,1272.3275,279.586,1281.86,277.11" style="stroke:#181818;stroke-width:1.0;"/><text fill="#000000" font-family="Microsoft YaHei" font-size="13" lengthAdjust="spacing" textLength="79" x="1159.83" y="248.2354">current state</text></g><!--link Machine to ActorCell--><g id="link_Machine_ActorCell"><path d="M1317.3,326.28 C1304.08,333.7 1291.82,342.95 1282.33,354.48 C1242.72,402.6 1277.8,434.59 1252.33,491.48 C1210.19,585.6 1202.47,622.78 1116.33,679.48 C857.02,850.16 471.7309,795.7043 283.4909,754.4543 " fill="none" id="Machine-to-ActorCell" style="stroke:#181818;stroke-width:1.0;"/><polygon fill="#181818" points="277.63,753.17,285.5652,759.0038,282.5141,754.2403,287.2776,751.1892,277.63,753.17" style="stroke:#181818;stroke-width:1.0;"/><text fill="#000000" font-family="Microsoft YaHei" font-size="13" lengthAdjust="spacing" textLength="149" x="760.33" y="764.2354">ensure desired workflow</text></g><!--link ActorCell to Futures--><g id="link_ActorCell_Futures"><path d="M277.56,699.99 C361.72,680.25 468.8885,655.1298 534.9885,639.6298 " fill="none" id="ActorCell-to-Futures" style="stroke:#181818;stroke-width:1.0;"/><polygon fill="#181818" points="540.83,638.26,531.1545,636.4203,535.962,639.4015,532.9809,644.2091,540.83,638.26" style="stroke:#181818;stroke-width:1.0;"/><text fill="#000000" font-family="Microsoft YaHei" font-size="13" lengthAdjust="spacing" textLength="122" x="310.33" y="659.2354">start / join / replace</text></g><!--link Futures to Workflow--><g id="link_Futures_Workflow"><path d="M651.6,606.32 C715.37,582.89 823.5,540.27 910.33,491.48 C938.66,475.56 963.7279,457.9238 986.1879,440.9038 " fill="none" id="Futures-to-Workflow" style="stroke:#181818;stroke-width:1.0;"/><polygon fill="#181818" points="990.97,437.28,981.381,439.5277,986.985,440.2998,986.2128,445.9037,990.97,437.28" style="stroke:#181818;stroke-width:1.0;"/><text fill="#000000" font-family="Microsoft YaHei" font-size="13" lengthAdjust="spacing" textLength="22" x="823.83" y="487.2354">poll</text></g><!--link Workflow to State--><g id="link_Workflow_State"><path d="M1100.75,406.06 C1166.77,403.83 1258.7734,400.7233 1327.4934,398.3933 " fill="none" id="Workflow-to-State" style="stroke:#181818;stroke-width:1.0;"/><polygon fill="#181818" points="1333.49,398.19,1324.3596,394.4973,1328.4929,398.3594,1324.6307,402.4927,1333.49,398.19" style="stroke:#181818;stroke-width:1.0;"/><text fill="#000000" font-family="Microsoft YaHei" font-size="13" lengthAdjust="spacing" textLength="78" x="1160.33" y="397.2354">&#30701;&#20020;&#30028;&#21306;&#35835;&#20889;</text></g><!--link Workflow to Facade--><g id="link_Workflow_Facade"><path d="M1098.43,379.62 C1105.17,374.68 1111.35,368.99 1116.33,362.48 C1153.15,314.35 1118.21,283.16 1146.33,229.48 C1187.78,150.34 1207.71,130.59 1282.33,81.48 C1295.77,72.64 1305.5072,67.4782 1320.8472,61.4382 " fill="none" id="Workflow-to-Facade" style="stroke:#181818;stroke-width:1.0;"/><polygon fill="#181818" points="1326.43,59.24,1316.5903,58.8154,1321.7776,61.0718,1319.5212,66.2592,1326.43,59.24" style="stroke:#181818;stroke-width:1.0;"/><text fill="#000000" font-family="Microsoft YaHei" font-size="13" lengthAdjust="spacing" textLength="104" x="1147.33" y="99.2354">named capability</text></g><!--link Facade to Client--><g id="link_Facade_Client"><path d="M1503.24,35.48 C1536.76,35.48 1569.25,35.48 1603.85,35.48 " fill="none" id="Facade-to-Client" style="stroke:#181818;stroke-width:1.0;"/><polygon fill="#181818" points="1609.85,35.48,1600.85,31.48,1604.85,35.48,1600.85,39.48,1609.85,35.48" style="stroke:#181818;stroke-width:1.0;"/></g><!--link Client to Other--><g id="link_Client_Other"><path d="M1811.74,35.48 C1884.37,35.48 1975.68,35.48 2044.85,35.48 " fill="none" id="Client-to-Other" style="stroke:#181818;stroke-width:1.0;"/><polygon fill="#181818" points="2050.85,35.48,2041.85,31.48,2045.85,35.48,2041.85,39.48,2050.85,35.48" style="stroke:#181818;stroke-width:1.0;"/><text fill="#000000" font-family="Microsoft YaHei" font-size="13" lengthAdjust="spacing" textLength="178" x="1842.33" y="31.2354">context + stable cancellation</text></g><!--link Futures to Tasks--><g id="link_Futures_Tasks"><path d="M651.79,626.49 C724.45,627.84 847.931,630.1381 934.231,631.7481 " fill="none" id="Futures-to-Tasks" style="stroke:#181818;stroke-width:1.0;"/><polygon fill="#181818" points="940.23,631.86,931.3062,627.6928,935.2309,631.7667,931.157,635.6914,940.23,631.86" style="stroke:#181818;stroke-width:1.0;"/></g><!--link Tasks to Observation--><g id="link_Tasks_Observation"><path d="M1116.58,641.87 C1174.19,647.42 1243.9676,654.1355 1304.5776,659.9655 " fill="none" id="Tasks-to-Observation" style="stroke:#181818;stroke-width:1.0;"/><polygon fill="#181818" points="1310.55,660.54,1301.9743,655.6967,1305.573,660.0613,1301.2084,663.6599,1310.55,660.54" style="stroke:#181818;stroke-width:1.0;"/></g><!--link ActorCell to Observation--><g id="link_ActorCell_Observation"><path d="M277.68,720.67 C515.42,710.17 1072.3258,685.5649 1304.7258,675.2949 " fill="none" id="ActorCell-to-Observation" style="stroke:#181818;stroke-width:1.0;"/><polygon fill="#181818" points="1310.72,675.03,1301.5522,671.4312,1305.7249,675.2507,1301.9054,679.4234,1310.72,675.03" style="stroke:#181818;stroke-width:1.0;"/></g><!--link State to GMN42--><g id="link_State_GMN42"><path d="M1333.36,391.84 C1286,385.03 1229.82,367.85 1199.33,325.98 C1165.84,279.99 1166.51,244.45 1199.33,197.98 C1228.7,156.39 1282.73,137.27 1329.34,128.54 " fill="none" id="State-GMN42" style="stroke:#181818;stroke-width:1.0;stroke-dasharray:7.0,7.0;"/></g><!--link ActorCell to GMN45--><g id="link_ActorCell_GMN45"><path d="M58.07,704.29 C39.84,694.9 24.51,681.39 17.33,661.98 C6,631.34 6,545.62 17.33,514.98 C26.97,488.91 49.3,470.52 73.88,457.65 " fill="none" id="ActorCell-GMN45" style="stroke:#181818;stroke-width:1.0;stroke-dasharray:7.0,7.0;"/></g><!--SRC=[TLNVJnj747w_lsBbfqGe-9s7IeaHIYkbf1YfgkINzTtQtd2tUzhT0wogagEM12o2GyMlfZI8fo9KJ28XIe2MFwRUi_alEdjxFlj0lC1wvvjlPcU-cPCBb8LOu01LiRjG5pnYNedxNA2b1bN4aPdT8pKS-Mg6C_Kj3WWglA2ku9BN5Fe1FoUqC8QL3Upn9Shgg8PzESxYyY3aZ31LLasV845SXLdT9uvFW4Xn96YzeP17ZOLovZZOLP1DeNVnGRSFzNLBTpO7hPK2mX9DaqNYyv08nmaXUro7hAPvW2b3PI8MgKiAw4S7ZO9cvjdgA-2lCDrTZxVFKkwLd-FjJ_6xRi9j4NddiiAAe1VORL16AcnUO2QfoN9gIl57avEJZoVT1Zo7s3DXCXBsd52cZddExo8Ycc1jCXVLM8NrBjxfwqkzUgvNVzTNb_DOBYJE2Ixl-ZqN2pMVBurv3zuUztyvj-_fN-_46xycpaCa-7jOuIgMKAcNWYwQzmmhPXwNe9EJyzDOKTDgehc8AHhShse9H26uZqhmUaRy2dk98mXHH7D4He4vJ0iJemZSF4o2f2vvdcUHX099EIAovIcY4lPzunvL0weIWY7sVekeYwQf3B5o6rOcwOyyygdHLOa0xHofKwaWpAFGbkHnXG6FK13m6vwaFKT27xlc8P1GPCkK4JpGbJ81WOKS0in42eGW4w_qdFSnNSxIgB2dIf4WL6W2mT00e0YwyRt4tI3lECzM9RG76nrMsDUUJufGcgPn5hmkJ3Kda1BO9QckCxHfyVtH6FPw1hlO0vKp67OF1KGrk9S-8R6CkyutGy2adYMVmcM5aUNGfovLY389GmwK4mZmii5j0orkd6PMDOX0-JnioCJYEDd0eoTFlh8ZWQOG25s_-UsECMl30tOxtmzPqr4TcJDb6cicgA7kpMNQM729D_w4-Url7UZDV_JcKRn_u0mzHdddhqRnPB9Z9X2a0yL9iyn3t4WOLLYeCxmtc96cfv3TFh2s9UnI3oqDLy08ayzQfef_PHKlhEAT8U1EJOskdUotCThb20KxEEbTdFMtr_NwvU3qoXGlXxFg0Q0Lbej3NAK-LKqdjHXGgWtxp_OhqGOy7afEbiriGC9L-8IuHbg-RnKzdgqTbUHlsl6HylD56BSuZCCpgbmf7Y1U6_l6m6QsOZ2KvP2u_xLUF-FBDYIS0xv8RdTFzFfA0kqUzj-_SUqU0skgV3YPbV8SCnXKWzFTZ_sDJqa-yUgEALXdH-yVtRQsuhChtJvo2FEGoUbUPdPDwyvnlByMhxNqvu_foEZEQU-c6szzIVZ_tOtRRRZIdRr1z-Psjplu-sXmynOlOQeU9XyjD_X4wfMZsm_l1xiTI2pz101rgtTnh4-_33uVGfXuxzJUpFC5of624fdelPi_zCbU-ZrgdyUjrthjDDx_AmlyFm00]--></g></svg>