<svg xmlns="http://www.w3.org/2000/svg" xmlns:xlink="http://www.w3.org/1999/xlink" contentStyleType="text/css" data-diagram-type="DESCRIPTION" height="1017px" preserveAspectRatio="none" style="width:2336px;height:1017px;background:#FFFFFF;" version="1.1" viewBox="0 0 2336 1017" width="2336px" zoomAndPan="magnify"><?plantuml 1.2026.6?><defs/><g><!--cluster pool-control-plane crate--><g class="cluster" data-qualified-name="pool-control-plane crate" data-source-line="7" id="ent0001"><path d="M8.5,62.14 L200.5166,62.14 A3.75,3.75 0 0 1 203.0166,64.64 L210.0166,84.4369 L2318.86,84.4369 A2.5,2.5 0 0 1 2321.36,86.9369 L2321.36,895.64 A2.5,2.5 0 0 1 2318.86,898.14 L8.5,898.14 A2.5,2.5 0 0 1 6,895.64 L6,64.64 A2.5,2.5 0 0 1 8.5,62.14" fill="none" style="stroke:#000000;stroke-width:1.5;"/><line style="stroke:#000000;stroke-width:1.5;" x1="6" x2="210.0166" y1="84.4369" y2="84.4369"/><text fill="#000000" font-family="'Microsoft YaHei'" font-size="14" font-weight="700" lengthAdjust="spacing" textLength="191.0166" x="10" y="77.1351">pool-control-plane crate</text></g><!--cluster runtime/??????--><g class="cluster" data-qualified-name="pool-control-plane crate.runtime......." data-source-line="10" id="ent0003"><path d="M960.36,105.14 L1112.885,105.14 A3.75,3.75 0 0 1 1115.385,107.64 L1122.385,127.4369 L1658.73,127.4369 A2.5,2.5 0 0 1 1661.23,129.9369 L1661.23,381.64 A2.5,2.5 0 0 1 1658.73,384.14 L960.36,384.14 A2.5,2.5 0 0 1 957.86,381.64 L957.86,107.64 A2.5,2.5 0 0 1 960.36,105.14" fill="none" style="stroke:#000000;stroke-width:1.5;"/><line style="stroke:#000000;stroke-width:1.5;" x1="957.86" x2="1122.385" y1="127.4369" y2="127.4369"/><text fill="#000000" font-family="'Microsoft YaHei'" font-size="14" font-weight="700" lengthAdjust="spacing" textLength="151.525" x="961.86" y="120.1351">runtime/&#65288;&#19994;&#21153;&#26080;&#20851;&#65289;</text></g><!--cluster member_disk/??????--><g class="cluster" data-qualified-name="pool-control-plane crate.member_disk......." data-source-line="18" id="ent0009"><path d="M549.37,408.14 L744.0386,408.14 A3.75,3.75 0 0 1 746.5386,410.64 L753.5386,430.4369 L2294.86,430.4369 A2.5,2.5 0 0 1 2297.36,432.9369 L2297.36,811.64 A2.5,2.5 0 0 1 2294.86,814.14 L549.37,814.14 A2.5,2.5 0 0 1 546.87,811.64 L546.87,410.64 A2.5,2.5 0 0 1 549.37,408.14" fill="none" style="stroke:#000000;stroke-width:1.5;"/><line style="stroke:#000000;stroke-width:1.5;" x1="546.87" x2="753.5386" y1="430.4369" y2="430.4369"/><text fill="#000000" font-family="'Microsoft YaHei'" font-size="14" font-weight="700" lengthAdjust="spacing" textLength="193.6686" x="550.87" y="423.1351">member_disk/&#65288;&#39046;&#22495;&#23454;&#29616;&#65289;</text></g><!--cluster service/--><g class="cluster" data-qualified-name="pool-control-plane crate.member_disk........service." data-source-line="22" id="ent0013"><path d="M573.37,511.14 L635.9345,511.14 A3.75,3.75 0 0 1 638.4345,513.64 L645.4345,533.4369 L1935.86,533.4369 A2.5,2.5 0 0 1 1938.36,535.9369 L1938.36,787.64 A2.5,2.5 0 0 1 1935.86,790.14 L573.37,790.14 A2.5,2.5 0 0 1 570.87,787.64 L570.87,513.64 A2.5,2.5 0 0 1 573.37,511.14" fill="none" style="stroke:#000000;stroke-width:1.5;"/><line style="stroke:#000000;stroke-width:1.5;" x1="570.87" x2="645.4345" y1="533.4369" y2="533.4369"/><text fill="#000000" font-family="'Microsoft YaHei'" font-size="14" font-weight="700" lengthAdjust="spacing" textLength="61.5645" x="574.87" y="526.1351">service/</text></g><!--entity Lib--><g class="entity" data-qualified-name="pool-control-plane crate.Lib" data-source-line="8" id="ent0002"><rect fill="#F1F1F1" height="52.5938" rx="2.5" ry="2.5" style="stroke:#181818;stroke-width:0.5;" width="221.3662" x="604.9" y="829.84"/><text fill="#000000" font-family="'Microsoft YaHei'" font-size="14" lengthAdjust="spacing" textLength="34.166" x="614.9" y="852.8351">lib.rs</text><text fill="#000000" font-family="'Microsoft YaHei'" font-size="14" lengthAdjust="spacing" textLength="201.3662" x="614.9" y="869.132">public domain + runtime API</text></g><!--entity RuntimeTests--><g class="entity" data-qualified-name="pool-control-plane crate.RuntimeTests" data-source-line="33" id="ent0021"><rect fill="#F1F1F1" height="52.5938" rx="2.5" ry="2.5" style="stroke:#181818;stroke-width:0.5;" width="217.7295" x="606.72" y="307.84"/><text fill="#000000" font-family="'Microsoft YaHei'" font-size="14" lengthAdjust="spacing" textLength="197.7295" x="616.72" y="330.8351">tests/runtime_component.rs</text><text fill="#000000" font-family="'Microsoft YaHei'" font-size="14" lengthAdjust="spacing" textLength="156.3584" x="616.72" y="347.132">runtime contract tests</text></g><!--entity DomainTests--><g class="entity" data-qualified-name="pool-control-plane crate.DomainTests" data-source-line="34" id="ent0022"><rect fill="#F1F1F1" height="52.5938" rx="2.5" ry="2.5" style="stroke:#181818;stroke-width:0.5;" width="227.8672" x="22" y="625.84"/><text fill="#000000" font-family="'Microsoft YaHei'" font-size="14" lengthAdjust="spacing" textLength="207.8672" x="32" y="648.8351">member_disk/service_tests.rs</text><text fill="#000000" font-family="'Microsoft YaHei'" font-size="14" lengthAdjust="spacing" textLength="197.1826" x="32" y="665.132">business + integration tests</text></g><!--entity Runtime--><g class="entity" data-qualified-name="pool-control-plane crate.runtime........Runtime" data-source-line="11" id="ent0004"><rect fill="#F1F1F1" height="68.8906" rx="2.5" ry="2.5" style="stroke:#181818;stroke-width:0.5;" width="258.1572" x="973.86" y="299.69"/><text fill="#000000" font-family="'Microsoft YaHei'" font-size="14" lengthAdjust="spacing" textLength="67.6484" x="983.86" y="322.6851">service.rs</text><text fill="#000000" font-family="'Microsoft YaHei'" font-size="14" lengthAdjust="spacing" textLength="238.1572" x="983.86" y="338.982">ServiceRuntime / Client / Instance</text><text fill="#000000" font-family="'Microsoft YaHei'" font-size="14" lengthAdjust="spacing" textLength="108.165" x="983.86" y="355.2789">root Future poll</text></g><!--entity Lifecycle--><g class="entity" data-qualified-name="pool-control-plane crate.runtime........Lifecycle" data-source-line="12" id="ent0005"><rect fill="#F1F1F1" height="52.5938" rx="2.5" ry="2.5" style="stroke:#181818;stroke-width:0.5;" width="149.0488" x="1426.68" y="315.84"/><text fill="#000000" font-family="'Microsoft YaHei'" font-size="14" lengthAdjust="spacing" textLength="75.0039" x="1436.68" y="338.8351">lifecycle.rs</text><text fill="#000000" font-family="'Microsoft YaHei'" font-size="14" lengthAdjust="spacing" textLength="129.0488" x="1436.68" y="355.132">Control + lifecycle</text></g><!--entity Observation--><g class="entity" data-qualified-name="pool-control-plane crate.runtime........Observation" data-source-line="13" id="ent0006"><rect fill="#F1F1F1" height="52.5938" rx="2.5" ry="2.5" style="stroke:#181818;stroke-width:0.5;" width="288.0371" x="1357.19" y="227.84"/><text fill="#000000" font-family="'Microsoft YaHei'" font-size="14" lengthAdjust="spacing" textLength="100.2969" x="1367.19" y="250.8351">observation.rs</text><text fill="#000000" font-family="'Microsoft YaHei'" font-size="14" lengthAdjust="spacing" textLength="268.0371" x="1367.19" y="267.132">Operation / Trace / snapshots / events</text></g><!--entity Task--><g class="entity" data-qualified-name="pool-control-plane crate.runtime........Task" data-source-line="14" id="ent0007"><rect fill="#F1F1F1" height="52.5938" rx="2.5" ry="2.5" style="stroke:#181818;stroke-width:0.5;" width="213.792" x="1394.31" y="139.84"/><text fill="#000000" font-family="'Microsoft YaHei'" font-size="14" lengthAdjust="spacing" textLength="46.9697" x="1404.31" y="162.8351">task.rs</text><text fill="#000000" font-family="'Microsoft YaHei'" font-size="14" lengthAdjust="spacing" textLength="193.792" x="1404.31" y="179.132">TaskAttempt + TaskControl</text></g><!--entity ObjectTask--><g class="entity" data-qualified-name="pool-control-plane crate.runtime........ObjectTask" data-source-line="15" id="ent0008"><rect fill="#F1F1F1" height="52.5938" rx="2.5" ry="2.5" style="stroke:#181818;stroke-width:0.5;" width="213.4434" x="996.22" y="175.84"/><text fill="#000000" font-family="'Microsoft YaHei'" font-size="14" lengthAdjust="spacing" textLength="97.1113" x="1006.22" y="198.8351">object_task.rs</text><text fill="#000000" font-family="'Microsoft YaHei'" font-size="14" lengthAdjust="spacing" textLength="193.4434" x="1006.22" y="215.132">object in-flight coordination</text></g><!--entity Model--><g class="entity" data-qualified-name="pool-control-plane crate.member_disk........Model" data-source-line="19" id="ent0010"><rect fill="#F1F1F1" height="52.5938" rx="2.5" ry="2.5" style="stroke:#181818;stroke-width:0.5;" width="206.751" x="2029.99" y="745.84"/><text fill="#000000" font-family="'Microsoft YaHei'" font-size="14" lengthAdjust="spacing" textLength="167.2412" x="2039.99" y="768.8351">model.rs + allocation.rs</text><text fill="#000000" font-family="'Microsoft YaHei'" font-size="14" lengthAdjust="spacing" textLength="186.751" x="2039.99" y="785.132">entity / bitmap / invariants</text></g><!--entity Event--><g class="entity" data-qualified-name="pool-control-plane crate.member_disk........Event" data-source-line="20" id="ent0011"><rect fill="#F1F1F1" height="52.5938" rx="2.5" ry="2.5" style="stroke:#181818;stroke-width:0.5;" width="196.8867" x="617.14" y="442.84"/><text fill="#000000" font-family="'Microsoft YaHei'" font-size="14" lengthAdjust="spacing" textLength="57.374" x="627.14" y="465.8351">event.rs</text><text fill="#000000" font-family="'Microsoft YaHei'" font-size="14" lengthAdjust="spacing" textLength="176.8867" x="627.14" y="482.132">UP / DOWN / Shrink input</text></g><!--entity Ports--><g class="entity" data-qualified-name="pool-control-plane crate.member_disk........Ports" data-source-line="21" id="ent0012"><rect fill="#F1F1F1" height="52.5938" rx="2.5" ry="2.5" style="stroke:#181818;stroke-width:0.5;" width="296.001" x="1985.36" y="657.84"/><text fill="#000000" font-family="'Microsoft YaHei'" font-size="14" lengthAdjust="spacing" textLength="53.4912" x="1995.36" y="680.8351">ports.rs</text><text fill="#000000" font-family="'Microsoft YaHei'" font-size="14" lengthAdjust="spacing" textLength="276.001" x="1995.36" y="697.132">Metadata / PoolNode / VDM capabilities</text></g><!--entity Service--><g class="entity" data-qualified-name="pool-control-plane crate.member_disk........service..Service" data-source-line="23" id="ent0014"><rect fill="#F1F1F1" height="52.5938" rx="2.5" ry="2.5" style="stroke:#181818;stroke-width:0.5;" width="214.1338" x="1708.23" y="683.84"/><text fill="#000000" font-family="'Microsoft YaHei'" font-size="14" lengthAdjust="spacing" textLength="48.5898" x="1718.23" y="706.8351">mod.rs</text><text fill="#000000" font-family="'Microsoft YaHei'" font-size="14" lengthAdjust="spacing" textLength="194.1338" x="1718.23" y="723.132">owned committed directory</text></g><!--entity Client--><g class="entity" data-qualified-name="pool-control-plane crate.member_disk........service..Client" data-source-line="24" id="ent0015"><rect fill="#F1F1F1" height="52.5938" rx="2.5" ry="2.5" style="stroke:#181818;stroke-width:0.5;" width="257.4258" x="586.87" y="721.84"/><text fill="#000000" font-family="'Microsoft YaHei'" font-size="14" lengthAdjust="spacing" textLength="55.9521" x="596.87" y="744.8351">client.rs</text><text fill="#000000" font-family="'Microsoft YaHei'" font-size="14" lengthAdjust="spacing" textLength="237.4258" x="596.87" y="761.132">typed requests + private protocol</text></g><!--entity Adapter--><g class="entity" data-qualified-name="pool-control-plane crate.member_disk........service..Adapter" data-source-line="25" id="ent0016"><rect fill="#F1F1F1" height="68.8906" rx="2.5" ry="2.5" style="stroke:#181818;stroke-width:0.5;" width="238.4834" x="596.34" y="617.69"/><text fill="#000000" font-family="'Microsoft YaHei'" font-size="14" lengthAdjust="spacing" textLength="72.6318" x="606.34" y="640.6851">runtime.rs</text><text fill="#000000" font-family="'Microsoft YaHei'" font-size="14" lengthAdjust="spacing" textLength="196.5059" x="606.34" y="656.982">ManagedService adaptation</text><text fill="#000000" font-family="'Microsoft YaHei'" font-size="14" lengthAdjust="spacing" textLength="218.4834" x="606.34" y="673.2789">conflict rule + task attachment</text></g><!--entity Reconcile--><g class="entity" data-qualified-name="pool-control-plane crate.member_disk........service..Reconcile" data-source-line="26" id="ent0017"><rect fill="#F1F1F1" height="52.5938" rx="2.5" ry="2.5" style="stroke:#181818;stroke-width:0.5;" width="177.3633" x="1014.26" y="625.84"/><text fill="#000000" font-family="'Microsoft YaHei'" font-size="14" lengthAdjust="spacing" textLength="81.0947" x="1024.26" y="648.8351">reconcile.rs</text><text fill="#000000" font-family="'Microsoft YaHei'" font-size="14" lengthAdjust="spacing" textLength="157.3633" x="1024.26" y="665.132">executable state table</text></g><!--entity Operations--><g class="entity" data-qualified-name="pool-control-plane crate.member_disk........service..Operations" data-source-line="27" id="ent0018"><rect fill="#F1F1F1" height="52.5938" rx="2.5" ry="2.5" style="stroke:#181818;stroke-width:0.5;" width="234.7852" x="1383.82" y="625.84"/><text fill="#000000" font-family="'Microsoft YaHei'" font-size="14" lengthAdjust="spacing" textLength="92.0117" x="1393.82" y="648.8351">operations.rs</text><text fill="#000000" font-family="'Microsoft YaHei'" font-size="14" lengthAdjust="spacing" textLength="214.7852" x="1393.82" y="665.132">normal async business actions</text></g><!--entity AllocationService--><g class="entity" data-qualified-name="pool-control-plane crate.member_disk........service..AllocationService" data-source-line="28" id="ent0019"><rect fill="#F1F1F1" height="52.5938" rx="2.5" ry="2.5" style="stroke:#181818;stroke-width:0.5;" width="229.8154" x="1386.3" y="713.84"/><text fill="#000000" font-family="'Microsoft YaHei'" font-size="14" lengthAdjust="spacing" textLength="85.5176" x="1396.3" y="736.8351">allocation.rs</text><text fill="#000000" font-family="'Microsoft YaHei'" font-size="14" lengthAdjust="spacing" textLength="209.8154" x="1396.3" y="753.132">Tier / failure-domain selection</text></g><!--entity Error--><g class="entity" data-qualified-name="pool-control-plane crate.member_disk........service..Error" data-source-line="29" id="ent0020"><rect fill="#F1F1F1" height="36.2969" rx="2.5" ry="2.5" style="stroke:#181818;stroke-width:0.5;" width="71.9463" x="679.61" y="545.99"/><text fill="#000000" font-family="'Microsoft YaHei'" font-size="14" lengthAdjust="spacing" textLength="51.9463" x="689.61" y="568.9851">error.rs</text></g><!--entity Pool--><g class="entity" data-qualified-name="Pool" data-source-line="37" id="ent0023"><rect fill="#F1F1F1" height="36.2969" rx="2.5" ry="2.5" style="stroke:#181818;stroke-width:0.5;" width="204.0166" x="33.93" y="913.99"/><text fill="#000000" font-family="'Microsoft YaHei'" font-size="14" lengthAdjust="spacing" textLength="184.0166" x="43.93" y="936.9851">Future Pool / PoolManager</text></g><g class="entity" data-qualified-name="GMN42" data-source-line="59" id="ent0043"><path d="M909.69,6 L909.69,46.2656 L1296.1946,46.2656 L1296.1946,16 L1286.1946,6 L909.69,6" fill="#FEFFDD" style="stroke:#181818;stroke-width:0.5;"/><path d="M1286.1946,6 L1286.1946,16 L1296.1946,16 L1286.1946,6" fill="#FEFFDD" style="stroke:#181818;stroke-width:1;"/><text fill="#000000" font-family="'Microsoft YaHei'" font-size="13" lengthAdjust="spacing" textLength="244.3976" x="915.69" y="23.0669">&#36890;&#29992;&#23618;&#19981;&#20986;&#29616; Disk / BG / Node &#19994;&#21153;&#31867;&#22411;</text><text fill="#000000" font-family="'Microsoft YaHei'" font-size="13" lengthAdjust="spacing" textLength="365.5046" x="915.69" y="38.1997">&#24403;&#21069;&#20808;&#30041;&#22312;&#21333; crate &#20869;&#65292;&#31532;&#20108;&#20010;&#39046;&#22495;&#39564;&#35777;&#21518;&#20877;&#20915;&#23450;&#26159;&#21542;&#25286; crate</text></g><g class="entity" data-qualified-name="GMN45" data-source-line="64" id="ent0046"><path d="M582.48,6 L582.48,46.2656 L848.6901,46.2656 L848.6901,16 L838.6901,6 L582.48,6" fill="#FEFFDD" style="stroke:#181818;stroke-width:0.5;"/><path d="M838.6901,6 L838.6901,16 L848.6901,16 L838.6901,6" fill="#FEFFDD" style="stroke:#181818;stroke-width:1;"/><text fill="#000000" font-family="'Microsoft YaHei'" font-size="13" lengthAdjust="spacing" textLength="182.0002" x="588.48" y="23.0669">&#39046;&#22495;&#21482;&#22312;&#19968;&#22788;&#36866;&#37197;&#20844;&#20849;&#36816;&#34892;&#22865;&#32422;</text><text fill="#000000" font-family="'Microsoft YaHei'" font-size="13" lengthAdjust="spacing" textLength="245.2101" x="588.48" y="38.1997">&#19994;&#21153;&#27969;&#31243;&#20173;&#26159; Service &#19978;&#30340;&#26222;&#36890; async fn</text></g><!--link Lib to Runtime--><g class="link" data-entity-1="ent0002" data-entity-2="ent0004" data-link-type="dependency" data-source-line="39" id="lnk24"><path d="M826.76,830.38 C847.11,820.87 866.18,807.88 879.69,790.14 C950.14,697.57 859.58,635.11 909.69,530.14 C942.02,462.39 1003.3792,406.8616 1048.8592,371.8216" fill="none" id="Lib-to-Runtime" style="stroke:#181818;stroke-width:1;"/><polygon fill="#181818" points="1052.82,368.77,1043.2493,371.0942,1048.8592,371.8216,1048.1318,377.4315,1052.82,368.77" style="stroke:#181818;stroke-width:1;stroke-linejoin:miter;stroke-miterlimit:10;"/></g><!--link Lib to Model--><g class="link" data-entity-1="ent0002" data-entity-2="ent0010" data-link-type="dependency" data-source-line="40" id="lnk25"><path d="M826.62,854.39 C903.7,853.31 1009.11,852.14 1101.94,852.14 C1101.94,852.14 1101.94,852.14 1816.29,852.14 C1905.02,852.14 1998.8984,823.8689 2061.9884,800.6189" fill="none" id="Lib-to-Model" style="stroke:#181818;stroke-width:1;"/><polygon fill="#181818" points="2066.68,798.89,2056.852,798.2488,2061.9884,800.6189,2059.6183,805.7553,2066.68,798.89" style="stroke:#181818;stroke-width:1;stroke-linejoin:miter;stroke-miterlimit:10;"/></g><!--link Runtime to Lifecycle--><g class="link" data-entity-1="ent0004" data-entity-2="ent0005" data-link-type="dependency" data-source-line="41" id="lnk26"><path d="M1232.32,336.73 C1296.52,338.02 1366.921,339.4499 1421.351,340.5399" fill="none" id="Runtime-to-Lifecycle" style="stroke:#181818;stroke-width:1;"/><polygon fill="#181818" points="1426.35,340.64,1417.4319,336.4606,1421.351,340.5399,1417.2717,344.459,1426.35,340.64" style="stroke:#181818;stroke-width:1;stroke-linejoin:miter;stroke-miterlimit:10;"/></g><!--link Runtime to Observation--><g class="link" data-entity-1="ent0004" data-entity-2="ent0006" data-link-type="dependency" data-source-line="42" id="lnk27"><path d="M1232.32,308.22 C1275.61,299.48 1319.0888,290.699 1362.6988,281.899" fill="none" id="Runtime-to-Observation" style="stroke:#181818;stroke-width:1;"/><polygon fill="#181818" points="1367.6,280.91,1357.9866,278.7692,1362.6988,281.899,1359.569,286.6112,1367.6,280.91" style="stroke:#181818;stroke-width:1;stroke-linejoin:miter;stroke-miterlimit:10;"/></g><!--link Runtime to Task--><g class="link" data-entity-1="ent0004" data-entity-2="ent0007" data-link-type="dependency" data-source-line="43" id="lnk28"><path d="M1184.81,299.36 C1219.5,283.87 1260.23,264.91 1296.19,246.14 C1324.1,231.57 1328.39,222.85 1357.19,210.14 C1371.57,203.79 1382.3994,199.5695 1397.7894,194.4095" fill="none" id="Runtime-to-Task" style="stroke:#181818;stroke-width:1;"/><polygon fill="#181818" points="1402.53,192.82,1392.7253,191.8885,1397.7894,194.4095,1395.2684,199.4735,1402.53,192.82" style="stroke:#181818;stroke-width:1;stroke-linejoin:miter;stroke-miterlimit:10;"/></g><!--link ObjectTask to Task--><g class="link" data-entity-1="ent0008" data-entity-2="ent0007" data-link-type="dependency" data-source-line="44" id="lnk29"><path d="M1210.13,192.49 C1267.1,187.31 1332.1205,181.4019 1389.0905,176.2319" fill="none" id="ObjectTask-to-Task" style="stroke:#181818;stroke-width:1;"/><polygon fill="#181818" points="1394.07,175.78,1384.7453,172.6098,1389.0905,176.2319,1385.4683,180.577,1394.07,175.78" style="stroke:#181818;stroke-width:1;stroke-linejoin:miter;stroke-miterlimit:10;"/></g><!--link Client to Runtime--><g class="link" data-entity-1="ent0015" data-entity-2="ent0004" data-link-type="dependency" data-source-line="45" id="lnk30"><path d="M825.73,721.44 C834.12,716.6 841.93,710.89 848.69,704.14 C878.5,674.33 864.72,653.92 878.69,614.14 C891.87,576.59 888.39,563.75 909.69,530.14 C950.49,465.71 1011.5711,408.4774 1054.5011,372.1974" fill="none" id="Client-to-Runtime" style="stroke:#181818;stroke-width:1;"/><polygon fill="#181818" points="1058.32,368.97,1048.8641,371.7241,1054.5011,372.1974,1054.0278,377.8344,1058.32,368.97" style="stroke:#181818;stroke-width:1;stroke-linejoin:miter;stroke-miterlimit:10;"/></g><!--link Adapter to Runtime--><g class="link" data-entity-1="ent0016" data-entity-2="ent0004" data-link-type="dependency" data-source-line="46" id="lnk31"><path d="M819.75,617.25 C829.89,612.16 839.72,606.46 848.69,600.14 C882.4,576.34 881.67,560.43 909.69,530.14 C963.08,472.39 1023.959,411.18 1063.019,372.46" fill="none" id="Adapter-to-Runtime" style="stroke:#181818;stroke-width:1;"/><polygon fill="#181818" points="1066.57,368.94,1057.3622,372.4353,1063.019,372.46,1062.9943,378.1168,1066.57,368.94" style="stroke:#181818;stroke-width:1;stroke-linejoin:miter;stroke-miterlimit:10;"/></g><!--link Adapter to ObjectTask--><g class="link" data-entity-1="ent0016" data-entity-2="ent0008" data-link-type="dependency" data-source-line="47" id="lnk32"><path d="M830.24,617.19 C837.07,612.24 843.33,606.58 848.69,600.14 C940.58,489.39 818.86,393.76 909.69,282.14 C931.53,255.29 959.2464,239.0805 991.2464,227.1205" fill="none" id="Adapter-to-ObjectTask" style="stroke:#181818;stroke-width:1;"/><polygon fill="#181818" points="995.93,225.37,986.0992,224.774,991.2464,227.1205,988.9,232.2677,995.93,225.37" style="stroke:#181818;stroke-width:1;stroke-linejoin:miter;stroke-miterlimit:10;"/></g><!--link Adapter to Reconcile--><g class="link" data-entity-1="ent0016" data-entity-2="ent0017" data-link-type="dependency" data-source-line="48" id="lnk33"><path d="M835.08,652.14 C892.81,652.14 956.03,652.14 1009.04,652.14" fill="none" id="Adapter-to-Reconcile" style="stroke:#181818;stroke-width:1;"/><polygon fill="#181818" points="1014.04,652.14,1005.04,648.14,1009.04,652.14,1005.04,656.14,1014.04,652.14" style="stroke:#181818;stroke-width:1;stroke-linejoin:miter;stroke-miterlimit:10;"/></g><!--link Reconcile to Operations--><g class="link" data-entity-1="ent0017" data-entity-2="ent0018" data-link-type="dependency" data-source-line="49" id="lnk34"><path d="M1191.88,652.14 C1248.32,652.14 1317.24,652.14 1378.55,652.14" fill="none" id="Reconcile-to-Operations" style="stroke:#181818;stroke-width:1;"/><polygon fill="#181818" points="1383.55,652.14,1374.55,648.14,1378.55,652.14,1374.55,656.14,1383.55,652.14" style="stroke:#181818;stroke-width:1;stroke-linejoin:miter;stroke-miterlimit:10;"/></g><!--link Operations to Service--><g class="link" data-entity-1="ent0018" data-entity-2="ent0014" data-link-type="dependency" data-source-line="50" id="lnk35"><path d="M1618.86,673.82 C1648.03,679.24 1674.2543,684.1055 1702.9043,689.4355" fill="none" id="Operations-to-Service" style="stroke:#181818;stroke-width:1;"/><polygon fill="#181818" points="1707.82,690.35,1699.7034,684.7714,1702.9043,689.4355,1698.2402,692.6364,1707.82,690.35" style="stroke:#181818;stroke-width:1;stroke-linejoin:miter;stroke-miterlimit:10;"/></g><!--link AllocationService to Service--><g class="link" data-entity-1="ent0019" data-entity-2="ent0014" data-link-type="dependency" data-source-line="51" id="lnk36"><path d="M1616.2,729.18 C1646.15,726.3 1673.3529,723.6885 1702.8929,720.8485" fill="none" id="AllocationService-to-Service" style="stroke:#181818;stroke-width:1;"/><polygon fill="#181818" points="1707.87,720.37,1698.5285,717.2497,1702.8929,720.8485,1699.2941,725.2129,1707.87,720.37" style="stroke:#181818;stroke-width:1;stroke-linejoin:miter;stroke-miterlimit:10;"/></g><!--link Service to Model--><g class="link" data-entity-1="ent0014" data-entity-2="ent0010" data-link-type="dependency" data-source-line="52" id="lnk37"><path d="M1922.86,731.04 C1957.36,737.81 1990.6235,744.3276 2024.8335,751.0376" fill="none" id="Service-to-Model" style="stroke:#181818;stroke-width:1;"/><polygon fill="#181818" points="2029.74,752,2021.6782,746.3425,2024.8335,751.0376,2020.1384,754.1929,2029.74,752" style="stroke:#181818;stroke-width:1;stroke-linejoin:miter;stroke-miterlimit:10;"/></g><!--link Service to Ports--><g class="link" data-entity-1="ent0014" data-entity-2="ent0012" data-link-type="dependency" data-source-line="53" id="lnk38"><path d="M1922.86,701.37 C1942.84,699.73 1959.0768,698.3889 1980.0368,696.6689" fill="none" id="Service-to-Ports" style="stroke:#181818;stroke-width:1;"/><polygon fill="#181818" points="1985.02,696.26,1975.723,693.0095,1980.0368,696.6689,1976.3773,700.9827,1985.02,696.26" style="stroke:#181818;stroke-width:1;stroke-linejoin:miter;stroke-miterlimit:10;"/></g><!--link DomainTests to Adapter--><g class="link" data-entity-1="ent0022" data-entity-2="ent0016" data-link-type="dependency" data-source-line="54" id="lnk39"><path d="M250.02,652.14 C349.79,652.14 489.69,652.14 591.05,652.14" fill="none" id="DomainTests-to-Adapter" style="stroke:#181818;stroke-width:1;"/><polygon fill="#181818" points="596.05,652.14,587.05,648.14,591.05,652.14,587.05,656.14,596.05,652.14" style="stroke:#181818;stroke-width:1;stroke-linejoin:miter;stroke-miterlimit:10;"/></g><!--link RuntimeTests to Runtime--><g class="link" data-entity-1="ent0021" data-entity-2="ent0004" data-link-type="dependency" data-source-line="55" id="lnk40"><path d="M824.69,334.14 C870.89,334.14 920.18,334.14 968.41,334.14" fill="none" id="RuntimeTests-to-Runtime" style="stroke:#181818;stroke-width:1;"/><polygon fill="#181818" points="973.41,334.14,964.41,330.14,968.41,334.14,964.41,338.14,973.41,334.14" style="stroke:#181818;stroke-width:1;stroke-linejoin:miter;stroke-miterlimit:10;"/></g><!--link Pool to Client--><g class="link" data-entity-1="ent0023" data-entity-2="ent0015" data-link-type="dependency" data-source-line="56" id="lnk41"><path d="M194.76,950.71 C280.89,974.35 442.23,1002.44 530.87,915.14 C552.59,893.74 518.53,800.86 538.87,778.14 C551.56,763.95 563.5161,756.3367 581.6261,750.6967" fill="none" id="Pool-to-Client" style="stroke:#181818;stroke-width:1;stroke-dasharray:7,7;"/><polygon fill="#181818" points="586.4,749.21,576.6177,748.067,581.6261,750.6967,578.9964,755.7052,586.4,749.21" style="stroke:#181818;stroke-width:1;stroke-linejoin:miter;stroke-miterlimit:10;"/><text fill="#000000" font-family="'Microsoft YaHei'" font-size="13" lengthAdjust="spacing" textLength="249.0186" x="280.87" y="911.2069">will own clients/control/observer/tasks</text></g><!--link Runtime to GMN42--><g class="link" data-entity-1="ent0004" data-entity-2="ent0043" data-link-type="association" data-source-line="59" id="lnk44"><path d="M973.61,303.58 C936.1,287.82 899.74,264.13 879.19,228.64 C859.81,195.18 859.81,175.1 879.19,141.64 C907.72,92.36 965.14,63.33 1014.67,46.7" fill="none" id="Runtime-GMN42" style="stroke:#181818;stroke-width:1;stroke-dasharray:7,7;"/></g><!--link Adapter to GMN45--><g class="link" data-entity-1="ent0016" data-entity-2="ent0046" data-link-type="association" data-source-line="64" id="lnk47"><path d="M596.18,660.29 C525.9,657.96 441.75,641.36 394.37,582.64 C259.3,415.22 260.04,266.65 394.37,98.64 C438.54,43.38 515.07,24.6 582.35,19.95" fill="none" id="Adapter-GMN45" style="stroke:#181818;stroke-width:1;stroke-dasharray:7,7;"/></g><?plantuml-src TLPTIrn76Bu_lsBmLdJlUn6mshI1-a6rBGL1vfmpkpjrpipfp1pjKW8cn6qIDRMqeOsKf2bj415J2GKnblwP7LUl_0jzv-ESFRkRtBZpzJxlr_C-HxLEUOubpb2Ca_MM50LFPmKJ4cssgIQHgkvJqiG5qxS5rmiu8sXYdYPIAD7Kw2ly2Q4JjRUgZLEnINaBDJ5JTPH4PBdWXEjbtM44IP9ep5kCH8m0a1P8qbPRevJQ6ofu5EKG5sw1lrm8DfM0Umc_ESESe4HYJIRGTn4Q0AC9HkDfgLPvNiIC9YWL6QOSJI9PS4qXyfcbEnC8A_GfZIEmh1o4-yRDnSFUsO5v_FBobz_DzfkRYqVUnP0JHUG6JOXpjEpNdmNy1ffbr3vge3jSGNu9MULI28rk5xgG1EM2CHT1i1Z5PhH9aax2FFgiJnaIgCv3-64tQYvY6nosvNC0YpcHRWS1hKYSs0WLnxbg2wrWJJR0J3dCnO7fAAh6Qjt1hS1YHckIvHfYihiGeKEm-_60lePkhbK8Veyedseor-v429bIxlo6EEoBW7Ltg4iPoM8YrrAgrcsdhl_ecXSlpCdp_fE_tzsfJAI4WLy85ZCcaa5Xu9hg3bGWfZh3EImety2Iuh8SyzPq5C-Lozb_lWGcSujVBi3FSbjIlWu0UQ6TxKVssQXjBgHMpdQUQ9nYZS5q2OYz09vW-SNSF4fmZcFAgAR4Hx5aZHnILOJ0laQPxcZ2lioRdAJs8gFGhZGCbP0TXnf8EswUEF8w1Dt9mKwIRmgYj2rWBYcm0nWiXHP9QBbd-pXGc2UVBkOGU1gS8aWzrwuHgnn66cW0V905AC8aiZH1M6kSj3F0SIvcx7iYt-63W7b2mwYGRqbIQ1m33imTnEdMVjJAX-COefmFtnakP8OPs7HuWk92KKwKGjZ9KPYIoc0SR8HYAvH8w6iJKmQJFnMqI17cvSqdLvcyjoT4IY41q3FBRjoRk-LqrEVKjgeHQhzMNRXeIWLqAWeP8VUuBaKhzc0Oi3vmWNThpiv1LWMQ1EvhqWfACm2USobxN8Yr1XpKqD8_J85dYGoi5ooAGAFHrDIjIYdBlP_CKd7joK0EwwTrGQkVEsaPgCpWB4XttMSWttlFQc8rzBHYNBNopmVi6IpTJTd-CK8CtTRFV1dg9ruiQaLtf-NyrBiyb8zhmlJqhVBJzG7Qf8mXa13azK0rmgUtuJylH3RieAeeuW86BHPQYmo9PeLulNNG__dGdDxldUsPxyz1dj4SK0Ww_U77yCS9dl_Cza_VckSxaVdt9_Depsm_x3zzPduxD7jF_VSTcUxspSLk__YuTxxREploYdzzj7lr-fxPVsAwUwRxnfmSNFxwsko_kjpfUhE8y1JPsCOYB8iHFXq_786ttjcM-VF1zTRzwsq8uTXidrxzjt_rSjVyzMF__5KK_X_uvrx_SAVtTWzSbUs071xt3nvSFZk1X8DeD7db_7y0?></g></svg>