<svg xmlns="http://www.w3.org/2000/svg" xmlns:xlink="http://www.w3.org/1999/xlink" contentStyleType="text/css" data-diagram-type="DESCRIPTION" height="660px" preserveAspectRatio="none" style="width:2506px;height:660px;background:#FFFFFF;" version="1.1" viewBox="0 0 2506 660" width="2506px" zoomAndPan="magnify"><defs/><g><!--cluster pool-control-plane crate????--><g class="cluster" data-entity="pool-control-plane crate...." data-source-line="7" data-uid="ent0002" id="cluster_pool-control-plane crate...."><path d="M8.5,66.16 L238.3125,66.16 A3.75,3.75 0 0 1 240.8125,68.66 L247.8125,90.6375 L2497.47,90.6375 A2.5,2.5 0 0 1 2499.97,93.1375 L2499.97,494.66 A2.5,2.5 0 0 1 2497.47,497.16 L8.5,497.16 A2.5,2.5 0 0 1 6,494.66 L6,68.66 A2.5,2.5 0 0 1 8.5,66.16" fill="none" style="stroke:#000000;stroke-width:1.5;"/><line style="stroke:#000000;stroke-width:1.5;" x1="6" x2="247.8125" y1="90.6375" y2="90.6375"/><text fill="#000000" font-family="Microsoft YaHei" font-size="14" font-weight="bold" lengthAdjust="spacing" textLength="228.8125" x="10" y="82.9735">pool-control-plane crate&#65288;&#24403;&#21069;&#65289;</text></g><!--cluster member_disk--><g class="cluster" data-entity="member_disk" data-source-line="10" data-uid="ent0004" id="cluster_member_disk"><path d="M32.5,111.16 L127.5283,111.16 A3.75,3.75 0 0 1 130.0283,113.66 L137.0283,135.6375 L2473.47,135.6375 A2.5,2.5 0 0 1 2475.97,138.1375 L2475.97,424.66 A2.5,2.5 0 0 1 2473.47,427.16 L32.5,427.16 A2.5,2.5 0 0 1 30,424.66 L30,113.66 A2.5,2.5 0 0 1 32.5,111.16" fill="none" style="stroke:#000000;stroke-width:1.5;"/><line style="stroke:#000000;stroke-width:1.5;" x1="30" x2="137.0283" y1="135.6375" y2="135.6375"/><text fill="#000000" font-family="Microsoft YaHei" font-size="14" font-weight="bold" lengthAdjust="spacing" textLength="94.0283" x="34" y="127.9735">member_disk</text></g><!--cluster service/--><g class="cluster" data-entity="service." data-source-line="15" data-uid="ent0009" id="cluster_service."><path d="M56.5,156.16 L112.7139,156.16 A3.75,3.75 0 0 1 115.2139,158.66 L122.2139,180.6375 L1541.3,180.6375 A2.5,2.5 0 0 1 1543.8,183.1375 L1543.8,354.66 A2.5,2.5 0 0 1 1541.3,357.16 L56.5,357.16 A2.5,2.5 0 0 1 54,354.66 L54,158.66 A2.5,2.5 0 0 1 56.5,156.16" fill="none" style="stroke:#000000;stroke-width:1.5;"/><line style="stroke:#000000;stroke-width:1.5;" x1="54" x2="122.2139" y1="180.6375" y2="180.6375"/><text fill="#000000" font-family="Microsoft YaHei" font-size="14" font-weight="bold" lengthAdjust="spacing" textLength="55.2139" x="58" y="172.9735">service/</text></g><!--entity Lib--><g class="entity" data-entity="Lib" data-source-line="8" data-uid="ent0003" id="entity_Lib"><rect fill="#F1F1F1" height="38.4775" rx="2.5" ry="2.5" style="stroke:#181818;stroke-width:0.5;" width="51.5889" x="1876.78" y="442.92"/><text fill="#000000" font-family="Microsoft YaHei" font-size="14" lengthAdjust="spacing" textLength="31.5889" x="1886.78" y="467.7335">lib.rs</text></g><!--entity Model--><g class="entity" data-entity="Model" data-source-line="11" data-uid="ent0005" id="entity_Model"><rect fill="#F1F1F1" height="56.9551" rx="2.5" ry="2.5" style="stroke:#181818;stroke-width:0.5;" width="213.9492" x="2084.51" y="299.68"/><text fill="#000000" font-family="Microsoft YaHei" font-size="14" lengthAdjust="spacing" textLength="57.8389" x="2094.51" y="324.4935">model.rs</text><text fill="#000000" font-family="Microsoft YaHei" font-size="14" lengthAdjust="spacing" textLength="193.9492" x="2094.51" y="342.971">entity + updates + invariants</text></g><!--entity Allocation--><g class="entity" data-entity="Allocation" data-source-line="12" data-uid="ent0006" id="entity_Allocation"><rect fill="#F1F1F1" height="56.9551" rx="2.5" ry="2.5" style="stroke:#181818;stroke-width:0.5;" width="100.5137" x="2359.46" y="299.68"/><text fill="#000000" font-family="Microsoft YaHei" font-size="14" lengthAdjust="spacing" textLength="80.5137" x="2369.46" y="324.4935">allocation.rs</text><text fill="#000000" font-family="Microsoft YaHei" font-size="14" lengthAdjust="spacing" textLength="76.6787" x="2369.46" y="342.971">BLK bitmap</text></g><!--entity Event--><g class="entity" data-entity="Event" data-source-line="13" data-uid="ent0007" id="entity_Event"><rect fill="#F1F1F1" height="56.9551" rx="2.5" ry="2.5" style="stroke:#181818;stroke-width:0.5;" width="173.5898" x="1815.78" y="299.68"/><text fill="#000000" font-family="Microsoft YaHei" font-size="14" lengthAdjust="spacing" textLength="52.2744" x="1825.78" y="324.4935">event.rs</text><text fill="#000000" font-family="Microsoft YaHei" font-size="14" lengthAdjust="spacing" textLength="153.5898" x="1825.78" y="342.971">external facts + intents</text></g><!--entity Ports--><g class="entity" data-entity="Ports" data-source-line="14" data-uid="ent0008" id="entity_Ports"><rect fill="#F1F1F1" height="56.9551" rx="2.5" ry="2.5" style="stroke:#181818;stroke-width:0.5;" width="201.665" x="1801.74" y="207.68"/><text fill="#000000" font-family="Microsoft YaHei" font-size="14" lengthAdjust="spacing" textLength="50.0801" x="1811.74" y="232.4935">ports.rs</text><text fill="#000000" font-family="Microsoft YaHei" font-size="14" lengthAdjust="spacing" textLength="181.665" x="1811.74" y="250.971">explicit domain capabilities</text></g><!--entity Tests--><g class="entity" data-entity="Tests" data-source-line="23" data-uid="ent0016" id="entity_Tests"><rect fill="#F1F1F1" height="38.4775" rx="2.5" ry="2.5" style="stroke:#181818;stroke-width:0.5;" width="84.8076" x="912.94" y="372.92"/><ellipse cx="928.44" cy="393.8975" fill="#000000" rx="2.5" ry="2.5"/><text fill="#000000" font-family="Microsoft YaHei" font-size="14" lengthAdjust="spacing" textLength="52.8076" x="934.94" y="397.7335">_tests.rs</text></g><!--entity Service--><g class="entity" data-entity="Service" data-source-line="16" data-uid="ent0010" id="entity_Service"><rect fill="#F1F1F1" height="75.4326" rx="2.5" ry="2.5" style="stroke:#181818;stroke-width:0.5;" width="164.2656" x="1363.53" y="265.45"/><text fill="#000000" font-family="Microsoft YaHei" font-size="14" lengthAdjust="spacing" textLength="46.1699" x="1373.53" y="290.2635">mod.rs</text><text fill="#000000" font-family="Microsoft YaHei" font-size="14" lengthAdjust="spacing" textLength="144.2656" x="1373.53" y="308.741">service + object store</text><text fill="#000000" font-family="Microsoft YaHei" font-size="14" lengthAdjust="spacing" textLength="110.7695" x="1373.53" y="327.2186">SDB-first update</text></g><!--entity Client--><g class="entity" data-entity="Client" data-source-line="17" data-uid="ent0011" id="entity_Client"><rect fill="#F1F1F1" height="56.9551" rx="2.5" ry="2.5" style="stroke:#181818;stroke-width:0.5;" width="190.4678" x="70" y="284.68"/><text fill="#000000" font-family="Microsoft YaHei" font-size="14" lengthAdjust="spacing" textLength="51.4541" x="80" y="309.4935">client.rs</text><text fill="#000000" font-family="Microsoft YaHei" font-size="14" lengthAdjust="spacing" textLength="170.4678" x="80" y="327.971">client + private messages</text></g><!--entity Reconcile--><g class="entity" data-entity="Reconcile" data-source-line="18" data-uid="ent0012" id="entity_Reconcile"><rect fill="#F1F1F1" height="56.9551" rx="2.5" ry="2.5" style="stroke:#181818;stroke-width:0.5;" width="217.5859" x="579.42" y="244.68"/><text fill="#000000" font-family="Microsoft YaHei" font-size="14" lengthAdjust="spacing" textLength="75.4482" x="589.42" y="269.4935">reconcile.rs</text><text fill="#000000" font-family="Microsoft YaHei" font-size="14" lengthAdjust="spacing" textLength="197.5859" x="589.42" y="287.971">object coordination decisions</text></g><!--entity Operations--><g class="entity" data-entity="Operations" data-source-line="19" data-uid="ent0013" id="entity_Operations"><rect fill="#F1F1F1" height="56.9551" rx="2.5" ry="2.5" style="stroke:#181818;stroke-width:0.5;" width="194.6855" x="858" y="244.68"/><text fill="#000000" font-family="Microsoft YaHei" font-size="14" lengthAdjust="spacing" textLength="87.0146" x="868" y="269.4935">operations.rs</text><text fill="#000000" font-family="Microsoft YaHei" font-size="14" lengthAdjust="spacing" textLength="174.6855" x="868" y="287.971">async business operations</text></g><!--entity Runtime--><g class="entity" data-entity="Runtime" data-source-line="20" data-uid="ent0014" id="entity_Runtime"><rect fill="#F1F1F1" height="56.9551" rx="2.5" ry="2.5" style="stroke:#181818;stroke-width:0.5;" width="196.9482" x="321.47" y="284.68"/><text fill="#000000" font-family="Microsoft YaHei" font-size="14" lengthAdjust="spacing" textLength="67.7988" x="331.47" y="309.4935">runtime.rs</text><text fill="#000000" font-family="Microsoft YaHei" font-size="14" lengthAdjust="spacing" textLength="176.9482" x="331.47" y="327.971">client + one root poll loop</text></g><!--entity Error--><g class="entity" data-entity="Error" data-source-line="21" data-uid="ent0015" id="entity_Error"><rect fill="#F1F1F1" height="56.9551" rx="2.5" ry="2.5" style="stroke:#181818;stroke-width:0.5;" width="109.3115" x="110.58" y="192.68"/><text fill="#000000" font-family="Microsoft YaHei" font-size="14" lengthAdjust="spacing" textLength="48.0771" x="120.58" y="217.4935">error.rs</text><text fill="#000000" font-family="Microsoft YaHei" font-size="14" lengthAdjust="spacing" textLength="89.3115" x="120.58" y="235.971">service errors</text></g><!--entity Pool--><g class="entity" data-entity="Pool" data-source-line="27" data-uid="ent0017" id="entity_Pool"><rect fill="#F1F1F1" height="56.9551" rx="2.5" ry="2.5" style="stroke:#181818;stroke-width:0.5;" width="160.8545" x="874.92" y="512.68"/><text fill="#000000" font-family="Microsoft YaHei" font-size="14" lengthAdjust="spacing" textLength="134.4766" x="884.92" y="537.4935">Pool / PoolManager</text><text fill="#000000" font-family="Microsoft YaHei" font-size="14" lengthAdjust="spacing" textLength="140.8545" x="884.92" y="555.971">not implemented yet</text></g><!--entity FutureRuntime--><g class="entity" data-entity="FutureRuntime" data-source-line="28" data-uid="ent0018" id="entity_FutureRuntime"><rect fill="#F1F1F1" height="56.9551" rx="2.5" ry="2.5" style="stroke:#181818;stroke-width:0.5;" width="241.8604" x="1781.65" y="516.68"/><text fill="#000000" font-family="Microsoft YaHei" font-size="14" lengthAdjust="spacing" textLength="163.7686" x="1791.65" y="541.4935">Future common runtime</text><text fill="#000000" font-family="Microsoft YaHei" font-size="14" lengthAdjust="spacing" textLength="221.8604" x="1791.65" y="559.971">extract only after real duplication</text></g><g class="entity" data-entity="GMN36" data-source-line="49" data-uid="ent0037" id="entity_GMN36"><path d="M1306.69,6 L1306.69,50.3154 A0,0 0 0 0 1306.69,50.3154 L1441.67,50.3154 L1445.67,265.03 L1449.67,50.3154 L1584.6495,50.3154 A0,0 0 0 0 1584.6495,50.3154 L1584.6495,16 L1574.6495,6 L1306.69,6 A0,0 0 0 0 1306.69,6" fill="#FEFFDD" style="stroke:#181818;stroke-width:0.5;"/><path d="M1574.6495,6 L1574.6495,16 L1584.6495,16 L1574.6495,6" fill="#FEFFDD" style="stroke:#181818;stroke-width:0.5;"/><text fill="#000000" font-family="Microsoft YaHei" font-size="13" lengthAdjust="spacing" textLength="253.3794" x="1312.69" y="24.7554">&#36825;&#20123;&#25991;&#20214;&#20849;&#21516;&#23454;&#29616;&#19968;&#20010;MemberDiskService</text><text fill="#000000" font-family="Microsoft YaHei" font-size="13" lengthAdjust="spacing" textLength="256.9595" x="1312.69" y="41.9131">&#19981;&#20135;&#29983;&#31532;&#20108;&#20010;ServiceLoop&#25110;Reconciler&#23545;&#35937;</text></g><g class="entity" data-entity="GMN39" data-source-line="54" data-uid="ent0040" id="entity_GMN39"><path d="M1794.58,609 L1794.58,653.3154 A0,0 0 0 0 1794.58,653.3154 L2010.58,653.3154 A0,0 0 0 0 2010.58,653.3154 L2010.58,619 L2000.58,609 L1906.58,609 L1902.58,573.93 L1898.58,609 L1794.58,609 A0,0 0 0 0 1794.58,609" fill="#FEFFDD" style="stroke:#181818;stroke-width:0.5;"/><path d="M2000.58,609 L2000.58,619 L2010.58,619 L2000.58,609" fill="#FEFFDD" style="stroke:#181818;stroke-width:0.5;"/><text fill="#000000" font-family="Microsoft YaHei" font-size="13" lengthAdjust="spacing" textLength="186.8877" x="1800.58" y="627.7554">&#19981;&#26159;&#24403;&#21069;crate&#65292;&#20063;&#19981;&#26159;&#26082;&#23450;&#26694;&#26550;</text><text fill="#000000" font-family="Microsoft YaHei" font-size="13" lengthAdjust="spacing" textLength="195" x="1800.58" y="644.9131">&#31532;&#20108;&#20010;&#30495;&#23454;&#39046;&#22495;&#35777;&#26126;&#37325;&#22797;&#21518;&#20877;&#25552;&#28860;</text></g><!--link Lib to Model--><g class="link" data-entity-1="Lib" data-entity-2="Model" data-source-line="30" data-uid="lnk19" id="link_Lib_Model"><path d="M1928.56,456.81 C1953.27,451.07 1991.87,440.9 2023.51,427.16 C2068.18,407.77 2110.6081,382.0286 2143.4581,360.4086" fill="none" id="Lib-to-Model" style="stroke:#181818;stroke-width:1;"/><polygon fill="#181818" points="2148.47,357.11,2138.7531,358.7166,2144.2934,359.8588,2143.1511,365.3991,2148.47,357.11" style="stroke:#181818;stroke-width:1;"/></g><!--link Model to Allocation--><g class="link" data-entity-1="Model" data-entity-2="Allocation" data-source-line="31" data-uid="lnk20" id="link_Model_Allocation"><path d="M2298.7,328.16 C2319.84,328.16 2335.09,328.16 2353.19,328.16" fill="none" id="Model-to-Allocation" style="stroke:#181818;stroke-width:1;"/><polygon fill="#181818" points="2359.19,328.16,2350.19,324.16,2354.19,328.16,2350.19,332.16,2359.19,328.16" style="stroke:#181818;stroke-width:1;"/></g><!--link Event to Model--><g class="link" data-entity-1="Event" data-entity-2="Model" data-source-line="32" data-uid="lnk21" id="link_Event_Model"><path d="M1989.66,328.16 C2019.37,328.16 2047.01,328.16 2078.15,328.16" fill="none" id="Event-to-Model" style="stroke:#181818;stroke-width:1;"/><polygon fill="#181818" points="2084.15,328.16,2075.15,324.16,2079.15,328.16,2075.15,332.16,2084.15,328.16" style="stroke:#181818;stroke-width:1;"/></g><!--link Ports to Model--><g class="link" data-entity-1="Ports" data-entity-2="Model" data-source-line="33" data-uid="lnk22" id="link_Ports_Model"><path d="M1993.57,265.02 C2027.59,275.93 2060.5663,286.5087 2094.6063,297.4187" fill="none" id="Ports-to-Model" style="stroke:#181818;stroke-width:1;"/><polygon fill="#181818" points="2100.32,299.25,2092.9703,292.694,2095.5586,297.7239,2090.5286,300.3122,2100.32,299.25" style="stroke:#181818;stroke-width:1;"/></g><!--link Service to Model--><g class="link" data-entity-1="Service" data-entity-2="Model" data-source-line="34" data-uid="lnk23" id="link_Service_Model"><path d="M1528.16,325.43 C1595.52,342.62 1694,364.98 1781.65,374.16 C1888.55,385.37 1916.98,388.57 2023.51,374.16 C2049.58,370.64 2071.5594,365.7578 2096.7994,358.7378" fill="none" id="Service-to-Model" style="stroke:#181818;stroke-width:1;"/><polygon fill="#181818" points="2102.58,357.13,2092.8373,355.6879,2097.7628,358.4698,2094.981,363.3954,2102.58,357.13" style="stroke:#181818;stroke-width:1;"/></g><!--link Service to Event--><g class="link" data-entity-1="Service" data-entity-2="Event" data-source-line="35" data-uid="lnk24" id="link_Service_Event"><path d="M1528.26,307.65 C1609.31,312.1 1727.1091,318.5705 1809.6491,323.1105" fill="none" id="Service-to-Event" style="stroke:#181818;stroke-width:1;"/><polygon fill="#181818" points="1815.64,323.44,1806.8733,318.9518,1810.6475,323.1654,1806.4339,326.9397,1815.64,323.44" style="stroke:#181818;stroke-width:1;"/></g><!--link Service to Ports--><g class="link" data-entity-1="Service" data-entity-2="Ports" data-source-line="36" data-uid="lnk25" id="link_Service_Ports"><path d="M1528.26,291.15 C1604.84,279.87 1713.634,263.844 1795.674,251.764" fill="none" id="Service-to-Ports" style="stroke:#181818;stroke-width:1;"/><polygon fill="#181818" points="1801.61,250.89,1792.1233,248.2437,1796.6633,251.6184,1793.2887,256.1584,1801.61,250.89" style="stroke:#181818;stroke-width:1;"/></g><!--link Reconcile to Service--><g class="link" data-entity-1="Reconcile" data-entity-2="Service" data-source-line="37" data-uid="lnk26" id="link_Reconcile_Service"><path d="M786.77,244.23 C815.63,236.19 843.4,229.12 858,227.16 C1038.43,203.02 1244.4554,247.1835 1357.7054,277.6035" fill="none" id="Reconcile-to-Service" style="stroke:#181818;stroke-width:1;"/><polygon fill="#181818" points="1363.5,279.16,1355.8458,272.9622,1358.6712,277.8629,1353.7704,280.6883,1363.5,279.16" style="stroke:#181818;stroke-width:1;"/></g><!--link Reconcile to Operations--><g class="link" data-entity-1="Reconcile" data-entity-2="Operations" data-source-line="38" data-uid="lnk27" id="link_Reconcile_Operations"><path d="M797.43,273.16 C817.34,273.16 832,273.16 851.54,273.16" fill="none" id="Reconcile-to-Operations" style="stroke:#181818;stroke-width:1;"/><polygon fill="#181818" points="857.54,273.16,848.54,269.16,852.54,273.16,848.54,277.16,857.54,273.16" style="stroke:#181818;stroke-width:1;"/></g><!--link Operations to Service--><g class="link" data-entity-1="Operations" data-entity-2="Service" data-source-line="39" data-uid="lnk28" id="link_Operations_Service"><path d="M1053.11,279.11 C1143.76,284.68 1271.7213,292.5424 1357.0913,297.7824" fill="none" id="Operations-to-Service" style="stroke:#181818;stroke-width:1;"/><polygon fill="#181818" points="1363.08,298.15,1354.342,293.6061,1358.0894,297.8437,1353.8518,301.5911,1363.08,298.15" style="stroke:#181818;stroke-width:1;"/></g><!--link Runtime to Service--><g class="link" data-entity-1="Runtime" data-entity-2="Service" data-source-line="40" data-uid="lnk29" id="link_Runtime_Service"><path d="M518.57,317.44 C538.68,318.16 559.73,318.79 579.42,319.16 C789.72,323.14 842.39,323.45 1052.69,319.16 C1160.11,316.97 1277.9874,311.6979 1357.2474,307.7579" fill="none" id="Runtime-to-Service" style="stroke:#181818;stroke-width:1;"/><polygon fill="#181818" points="1363.24,307.46,1354.0525,303.9118,1358.2462,307.7082,1354.4497,311.9019,1363.24,307.46" style="stroke:#181818;stroke-width:1;"/></g><!--link Runtime to Reconcile--><g class="link" data-entity-1="Runtime" data-entity-2="Reconcile" data-source-line="41" data-uid="lnk30" id="link_Runtime_Reconcile"><path d="M518.58,298.49 C538.32,295.53 553.2468,293.2928 573.3168,290.2728" fill="none" id="Runtime-to-Reconcile" style="stroke:#181818;stroke-width:1;"/><polygon fill="#181818" points="579.25,289.38,569.755,286.7637,574.3057,290.124,570.9454,294.6747,579.25,289.38" style="stroke:#181818;stroke-width:1;"/></g><!--link Client to Runtime--><g class="link" data-entity-1="Client" data-entity-2="Runtime" data-source-line="42" data-uid="lnk31" id="link_Client_Runtime"><path d="M260.69,313.16 C280.46,313.16 295.34,313.16 315.22,313.16" fill="none" id="Client-to-Runtime" style="stroke:#181818;stroke-width:1;"/><polygon fill="#181818" points="321.22,313.16,312.22,309.16,316.22,313.16,312.22,317.16,321.22,313.16" style="stroke:#181818;stroke-width:1;"/></g><!--link Error to Model--><g class="link" data-entity-1="Error" data-entity-2="Model" data-source-line="43" data-uid="lnk32" id="link_Error_Model"><path d="M220.36,204.44 C271.14,190.24 349.45,172.16 418.94,172.16 C418.94,172.16 418.94,172.16 1903.58,172.16 C1957.48,172.16 1974.29,168.19 2023.51,190.16 C2081.03,215.84 2130.6564,262.6127 2160.9364,294.9127" fill="none" id="Error-to-Model" style="stroke:#181818;stroke-width:1;"/><polygon fill="#181818" points="2165.04,299.29,2161.8029,289.9883,2161.6204,295.6422,2155.9665,295.4597,2165.04,299.29" style="stroke:#181818;stroke-width:1;"/></g><!--link Tests to Service--><g class="link" data-entity-1="Tests" data-entity-2="Service" data-source-line="44" data-uid="lnk33" id="link_Tests_Service"><path d="M998.06,387.63 C1059.42,380.63 1177.5,365.92 1276.69,346.16 C1305.03,340.52 1329.9341,334.5737 1357.2441,327.4537" fill="none" id="Tests-to-Service" style="stroke:#181818;stroke-width:1;"/><polygon fill="#181818" points="1363.05,325.94,1353.332,324.3399,1358.2117,327.2014,1355.3502,332.0811,1363.05,325.94" style="stroke:#181818;stroke-width:1;"/></g><!--link Pool to Service--><g class="link" data-entity-1="Pool" data-entity-2="Service" data-source-line="45" data-uid="lnk34" id="link_Pool_Service"><path d="M1035.95,527.19 C1103.04,513.2 1200.06,487.7 1276.69,446.16 C1327.7,418.51 1372.9333,377.7585 1404.8233,345.6285" fill="none" id="Pool-to-Service" style="stroke:#181818;stroke-width:1;stroke-dasharray:7,7;"/><polygon fill="#181818" points="1409.05,341.37,1399.8709,344.94,1405.5277,344.9188,1405.549,350.5756,1409.05,341.37" style="stroke:#181818;stroke-width:1;"/><text fill="#000000" font-family="Microsoft YaHei" font-size="13" lengthAdjust="spacing" textLength="192.9243" x="1083.69" y="441.9154">future assembly through Client</text></g><!--link Service to FutureRuntime--><g class="link" data-entity-1="Service" data-entity-2="FutureRuntime" data-source-line="46" data-uid="lnk35" id="link_Service_FutureRuntime"><path d="M1482.92,341.13 C1515,372.89 1564.42,417.49 1614.65,446.16 C1668.08,476.66 1726.7037,498.2136 1780.9237,514.5036" fill="none" id="Service-to-FutureRuntime" style="stroke:#181818;stroke-width:1;stroke-dasharray:7,7;"/><polygon fill="#181818" points="1786.67,516.23,1779.2016,509.8095,1781.8815,514.7913,1776.8997,517.4712,1786.67,516.23" style="stroke:#181818;stroke-width:1;"/><text fill="#000000" font-family="Microsoft YaHei" font-size="13" lengthAdjust="spacing" textLength="135.9414" x="1615.65" y="441.9154">no dependency today</text></g><!--SRC=[TLHDQnn74BtFhoZsc23vdaCWjcC2aH9ZvH8Gc9wUsjsEUhg6xbuvIp0aWSWsQ1L1WkDyuCKc40Z6YYz6LXJoPtPsvPF_GcgwPqQpk_5bfhkwtglggbVjzfGfX1Kvf4Bk3IoDJ7QDD5cuCrGU4zUUPzWN8-rlaF6VY1oXjwsa9KTz3v-BZr3rEhvkA3Aweym0-aAxBekal223nk_uiKQmABqm0us9HYRo15ODXXuoLPqeCabIS5vYmF4A8hqXERpbVw65GP1MU7npVh_yvuVomUJD-OCUV9N0PH3eQPLkMjS3uM1BfGaVjdmvvYdQsvboUn6s1CmfGytGtMgh_1ZUXL6HSJZ7AsNsXLN2-CYyNVck4WYjIOhg3e7bwjR7a2gVYo90FcXFLt6upxyO-4kFrWZDHPG-XlNOnFomSbl55cIzgx65Lb9n9IaNoe0KXKYLLbvXnD-iN0E-BOX3kwyaNccgiLgFG5mxSJQKVi4z0kV9ugxPkNvrew-iytMPGf2TwBpE9hLgRXcNp5TOjSz0oD4vpYUcUIsShXEmFCX8fJ5mrAb88fif4yhAUfNAyIBot6hyrwceG1iWiNB2ZOs4TEIKuKJWyZJmVDfk_oUd4Iibn-LRyHbO8Wy5QGsQAFR_LlHT9q5hoIvLEbZgfbVBWBcxslftRhCqG_E3vsVL9gdyxYP9n-qc3n5SWUgtBGoNsUuQmzcflD2OimjcC4PVIuHq5tjZv4SMgw0vrxU-RP2fPO7oJVKOH9yrosFDgir6bGH3iG9TX3SNJtWSOMFZ_NfumZViEvCHDDvn2fhjx6jvlSKI9wHhYPflfH1iZKINhPqsNowN_UCztcgx55oKS3JMbmzzxAGTkhL45VgqkTaQu3ten_8Bv_ZXubBx8R_MWs4p8erZ1LegDKCDyJWKQ38qae6KYN6ISDiHKlAUSg1-6_dYtvzdPx_E7zwR_Vso_Ev5UNnOFd-yEFfhTlhrxFJFxV1eNkSti_6VdKvcPtyiVfmkdZsRdHsoJtsonLgVtt_O5iAM9wykNZn9E0seOgzbi2mGvfq_EealU_tE7yvUJQDv_jFJylalyoS7yySlapRmuhSfv_hwwK4vdLwSV3D_TFJwtgJyVL8U7vK7a_dtnujlpzlm_m40]--></g></svg>