<svg xmlns="http://www.w3.org/2000/svg" xmlns:xlink="http://www.w3.org/1999/xlink" contentStyleType="text/css" data-diagram-type="DESCRIPTION" height="1037px" preserveAspectRatio="none" style="width:1404px;height:1037px;background:#FFFFFF;" version="1.1" viewBox="0 0 1404 1037" width="1404px" zoomAndPan="magnify"><defs/><g><!--cluster Pool--><g class="cluster" data-entity="Pool" data-source-line="7" data-uid="ent0002" id="cluster_Pool"><rect fill="none" height="273" rx="2.5" ry="2.5" style="stroke:#181818;stroke-width:1;" width="142.89" x="1189.42" y="750.32"/><text fill="#000000" font-family="Microsoft YaHei" font-size="14" font-weight="bold" lengthAdjust="spacing" textLength="31.7461" x="1244.992" y="767.1335">Pool</text></g><!--cluster MD--><g class="cluster" data-entity="MD" data-source-line="13" data-uid="ent0006" id="cluster_MD"><rect fill="none" height="173" rx="2.5" ry="2.5" style="stroke:#181818;stroke-width:1;" width="912.39" x="480.97" y="500.32"/><text fill="#000000" font-family="Microsoft YaHei" font-size="14" font-weight="bold" lengthAdjust="spacing" textLength="90.1797" x="892.0752" y="517.1335">MemberDisk</text></g><!--cluster Runtime--><g class="cluster" data-entity="Runtime" data-source-line="20" data-uid="ent0010" id="cluster_Runtime"><rect fill="none" height="109" rx="2.5" ry="2.5" style="stroke:#181818;stroke-width:1;" width="331.98" x="507.81" y="359.32"/><text fill="#000000" font-family="Microsoft YaHei" font-size="14" font-weight="bold" lengthAdjust="spacing" textLength="253.0732" x="547.2634" y="376.1335">MemberDisk private execution loop</text></g><!--cluster PN--><g class="cluster" data-entity="PN" data-source-line="24" data-uid="ent0012" id="cluster_PN"><rect fill="none" height="219" rx="2.5" ry="2.5" style="stroke:#181818;stroke-width:1;" width="679.73" x="85.98" y="108.32"/><text fill="#000000" font-family="Microsoft YaHei" font-size="14" font-weight="bold" lengthAdjust="spacing" textLength="70.2734" x="390.7083" y="125.1335">PoolNode</text></g><!--cluster Entry--><g class="cluster" data-entity="Entry" data-source-line="30" data-uid="ent0016" id="cluster_Entry"><rect fill="none" height="219" rx="2.5" ry="2.5" style="stroke:#181818;stroke-width:1;" width="195.47" x="576.06" y="713.32"/><text fill="#000000" font-family="Microsoft YaHei" font-size="14" font-weight="bold" lengthAdjust="spacing" textLength="57.1279" x="645.231" y="730.1335">BGEntry</text></g><!--entity Lifecycle--><g class="entity" data-entity="Lifecycle" data-source-line="8" data-uid="ent0003" id="entity_Lifecycle"><rect fill="#F1F1F1" height="38.4775" rx="2.5" ry="2.5" style="stroke:#181818;stroke-width:0.5;" width="76.8271" x="1222.45" y="795.08"/><text fill="#000000" font-family="Microsoft YaHei" font-size="14" lengthAdjust="spacing" textLength="56.8271" x="1232.45" y="819.8935">Lifecycle</text></g><!--entity Health--><g class="entity" data-entity="Health" data-source-line="9" data-uid="ent0004" id="entity_Health"><rect fill="#F1F1F1" height="38.4775" rx="2.5" ry="2.5" style="stroke:#181818;stroke-width:0.5;" width="64.0713" x="1228.83" y="868.08"/><text fill="#000000" font-family="Microsoft YaHei" font-size="14" lengthAdjust="spacing" textLength="44.0713" x="1238.83" y="892.8935">Health</text></g><!--entity Activity--><g class="entity" data-entity="Activity" data-source-line="10" data-uid="ent0005" id="entity_Activity"><rect fill="#F1F1F1" height="38.4775" rx="2.5" ry="2.5" style="stroke:#181818;stroke-width:0.5;" width="94.8945" x="1213.42" y="941.08"/><text fill="#000000" font-family="Microsoft YaHei" font-size="14" lengthAdjust="spacing" textLength="74.8945" x="1223.42" y="965.8935">Activity Set</text></g><!--entity Decision--><g class="entity" data-entity="Decision" data-source-line="14" data-uid="ent0007" id="entity_Decision"><path d="M504.97,555.1 C504.97,545.1 673.7928,545.1 673.7928,545.1 C673.7928,545.1 842.6155,545.1 842.6155,555.1 L842.6155,619.5326 C842.6155,629.5326 673.7928,629.5326 673.7928,629.5326 C673.7928,629.5326 504.97,629.5326 504.97,619.5326 L504.97,555.1" fill="#F1F1F1" style="stroke:#181818;stroke-width:0.5;"/><path d="M504.97,555.1 C504.97,565.1 673.7928,565.1 673.7928,565.1 C673.7928,565.1 842.6155,565.1 842.6155,555.1" fill="none" style="stroke:#181818;stroke-width:0.5;"/><text fill="#000000" font-family="Microsoft YaHei" font-size="14" lengthAdjust="spacing" textLength="231.1094" x="514.97" y="583.9135">Persisted MemberDisk fields (SDB)</text><text fill="#000000" font-family="Microsoft YaHei" font-size="14" lengthAdjust="spacing" textLength="206.7529" x="514.97" y="602.391">identity/tier/capacity/topology</text><text fill="#000000" font-family="Microsoft YaHei" font-size="14" lengthAdjust="spacing" textLength="317.6455" x="514.97" y="620.8686">shrink intent/io/allocation/membership/bitmap</text></g><!--entity DiskState--><g class="entity" data-entity="DiskState" data-source-line="15" data-uid="ent0008" id="entity_DiskState"><rect fill="#F1F1F1" height="56.9551" rx="2.5" ry="2.5" style="stroke:#181818;stroke-width:0.5;" width="216.9844" x="1152.37" y="548.84"/><text fill="#000000" font-family="Microsoft YaHei" font-size="14" lengthAdjust="spacing" textLength="151.4365" x="1162.37" y="573.6535">Operational Projection</text><text fill="#000000" font-family="Microsoft YaHei" font-size="14" lengthAdjust="spacing" textLength="196.9844" x="1162.37" y="592.131">UA / DA / DI / UI / REMOVED</text></g><!--entity ReconcileActivity--><g class="entity" data-entity="ReconcileActivity" data-source-line="21" data-uid="ent0011" id="entity_ReconcileActivity"><rect fill="#F1F1F1" height="56.9551" rx="2.5" ry="2.5" style="stroke:#181818;stroke-width:0.5;" width="299.9795" x="523.81" y="395.84"/><text fill="#000000" font-family="Microsoft YaHei" font-size="14" lengthAdjust="spacing" textLength="118.5078" x="533.81" y="420.6535">Execution Activity</text><text fill="#000000" font-family="Microsoft YaHei" font-size="14" lengthAdjust="spacing" textLength="279.9795" x="533.81" y="439.131">active reconciliation / cancel / idle waiters</text></g><!--entity Membership--><g class="entity" data-entity="Membership" data-source-line="25" data-uid="ent0013" id="entity_Membership"><rect fill="#F1F1F1" height="38.4775" rx="2.5" ry="2.5" style="stroke:#181818;stroke-width:0.5;" width="104.7383" x="115.38" y="153.08"/><text fill="#000000" font-family="Microsoft YaHei" font-size="14" lengthAdjust="spacing" textLength="84.7383" x="125.38" y="177.8935">Membership</text></g><!--entity Connectivity--><g class="entity" data-entity="Connectivity" data-source-line="26" data-uid="ent0014" id="entity_Connectivity"><rect fill="#F1F1F1" height="56.9551" rx="2.5" ry="2.5" style="stroke:#181818;stroke-width:0.5;" width="115.5391" x="109.98" y="226.84"/><text fill="#000000" font-family="Microsoft YaHei" font-size="14" lengthAdjust="spacing" textLength="83.125" x="119.98" y="251.6535">Connectivity</text><text fill="#000000" font-family="Microsoft YaHei" font-size="14" lengthAdjust="spacing" textLength="95.5391" x="119.98" y="270.131">&#26469;&#33258;NodeMap</text></g><!--entity ServiceState--><g class="entity" data-entity="ServiceState" data-source-line="27" data-uid="ent0015" id="entity_ServiceState"><rect fill="#F1F1F1" height="38.4775" rx="2.5" ry="2.5" style="stroke:#181818;stroke-width:0.5;" width="135.835" x="605.88" y="229.08"/><text fill="#000000" font-family="Microsoft YaHei" font-size="14" lengthAdjust="spacing" textLength="115.835" x="615.88" y="253.8935">Pool ServiceState</text></g><!--entity MediaState--><g class="entity" data-entity="MediaState" data-source-line="31" data-uid="ent0017" id="entity_MediaState"><rect fill="#F1F1F1" height="56.9551" rx="2.5" ry="2.5" style="stroke:#181818;stroke-width:0.5;" width="147.4629" x="600.06" y="757.84"/><text fill="#000000" font-family="Microsoft YaHei" font-size="14" lengthAdjust="spacing" textLength="76.2344" x="610.06" y="782.6535">MediaState</text><text fill="#000000" font-family="Microsoft YaHei" font-size="14" lengthAdjust="spacing" textLength="127.4629" x="610.06" y="801.131">&#30001;MemberDisk&#27966;&#29983;</text></g><!--entity DataState--><g class="entity" data-entity="DataState" data-source-line="32" data-uid="ent0018" id="entity_DataState"><rect fill="#F1F1F1" height="38.4775" rx="2.5" ry="2.5" style="stroke:#181818;stroke-width:0.5;" width="85.5498" x="631.02" y="850.08"/><text fill="#000000" font-family="Microsoft YaHei" font-size="14" lengthAdjust="spacing" textLength="65.5498" x="641.02" y="874.8935">DataState</text></g><!--entity PhysicalState--><g class="entity" data-entity="PhysicalState" data-source-line="18" data-uid="ent0009" id="entity_PhysicalState"><rect fill="#F1F1F1" height="56.9551" rx="2.5" ry="2.5" style="stroke:#181818;stroke-width:0.5;" width="119.8252" x="107.84" y="697.84"/><text fill="#000000" font-family="Microsoft YaHei" font-size="14" lengthAdjust="spacing" textLength="99.8252" x="117.84" y="722.6535">DiskMap Event</text><text fill="#000000" font-family="Microsoft YaHei" font-size="14" lengthAdjust="spacing" textLength="80.9854" x="117.84" y="741.131">UP / DOWN</text></g><g class="entity" data-entity="GMN25" data-source-line="43" data-uid="ent0026" id="entity_GMN25"><path d="M1124.68,448.74 L1124.68,475.8977 L1397.0472,475.8977 L1397.0472,458.74 L1387.0472,448.74 L1124.68,448.74" fill="#FEFFDD" style="stroke:#181818;stroke-width:0.5;"/><path d="M1387.0472,448.74 L1387.0472,458.74 L1397.0472,458.74 L1387.0472,448.74" fill="#FEFFDD" style="stroke:#181818;stroke-width:1;"/><text fill="#000000" font-family="Microsoft YaHei" font-size="13" lengthAdjust="spacing" textLength="251.3672" x="1130.68" y="467.4954">PoolState = Lifecycle &#215; Health &#215; Activity</text></g><g class="entity" data-entity="GMN28" data-source-line="47" data-uid="ent0029" id="entity_GMN28"><path d="M40.59,56.74 L40.59,83.8977 L294.9108,83.8977 L294.9108,66.74 L284.9108,56.74 L40.59,56.74" fill="#FEFFDD" style="stroke:#181818;stroke-width:0.5;"/><path d="M284.9108,56.74 L284.9108,66.74 L294.9108,66.74 L284.9108,56.74" fill="#FEFFDD" style="stroke:#181818;stroke-width:1;"/><text fill="#000000" font-family="Microsoft YaHei" font-size="13" lengthAdjust="spacing" textLength="233.3208" x="46.59" y="75.4954">Connected(n) &#19981;&#20195;&#34920; PoolServing(p,n)</text></g><g class="entity" data-entity="GMN31" data-source-line="51" data-uid="ent0032" id="entity_GMN31"><path d="M469.91,6 L469.91,84.6309 L877.6854,84.6309 L877.6854,16 L867.6854,6 L469.91,6" fill="#FEFFDD" style="stroke:#181818;stroke-width:0.5;"/><path d="M867.6854,6 L867.6854,16 L877.6854,16 L867.6854,6" fill="#FEFFDD" style="stroke:#181818;stroke-width:1;"/><text fill="#000000" font-family="Microsoft YaHei" font-size="13" lengthAdjust="spacing" textLength="386.7754" x="475.91" y="24.7554">Decision fields / Observation input / Projection &#19982;&#25191;&#34892;&#27963;&#21160;&#20998;&#31163;</text><text fill="#000000" font-family="Microsoft YaHei" font-size="13" lengthAdjust="spacing" textLength="223.5518" x="475.91" y="41.9131">&#29289;&#29702;&#20107;&#23454;&#21482;&#20445;&#23384;&#22312;active/pending&#20107;&#20214;</text><text fill="#000000" font-family="Microsoft YaHei" font-size="13" lengthAdjust="spacing" textLength="248.3774" x="475.91" y="59.0708">MemberDisk&#20445;&#23384;&#24050;&#25552;&#20132;&#33021;&#21147;&#21644;Shrink&#24847;&#22270;</text><text fill="#000000" font-family="Microsoft YaHei" font-size="13" lengthAdjust="spacing" textLength="149.9761" x="475.91" y="76.2285">&#31169;&#26377;&#25191;&#34892;&#27133;&#21482;&#25317;&#26377;Activity</text></g><!--link Entry to Health--><g class="link" data-entity-1="Entry" data-entity-2="Health" data-source-line="35" data-uid="lnk19" id="link_Entry_Health"><path d="M773.3274,918.0864 C776.3284,917.8967 779.3789,917.7038 782.4763,917.508 C794.866,916.7246 808.0051,915.8939 821.7171,915.027 C849.1411,913.2931 878.8569,911.4144 909.4525,909.48 C1031.835,901.7425 1162.307,893.4936 1222.482,889.6886" fill="none" id="Entry-to-Health" style="stroke:#181818;stroke-width:1;"/><polygon fill="#181818" points="1228.47,889.31,1219.2355,885.8859,1223.48,889.6255,1219.7404,893.87,1228.47,889.31" style="stroke:#181818;stroke-width:1;"/><text fill="#000000" font-family="Microsoft YaHei" font-size="13" lengthAdjust="spacing" textLength="136.3794" x="933.18" y="893.0754">BG -&gt; VD -&gt; Pool&#27966;&#29983;</text></g><!--link PhysicalState to MD--><g class="link" data-entity-1="PhysicalState" data-entity-2="MD" data-source-line="36" data-uid="lnk20" id="link_PhysicalState_MD"><path d="M228.05,719.14 C294.15,711.14 404.1225,697.8325 498.17,686.4525 C521.6819,683.6075 544.1984,680.883 564.7854,678.392 C575.0788,677.1464 584.8899,675.9593 594.1017,674.8447 C596.4047,674.566 598.6702,674.2919 600.8964,674.0225 C602.0095,673.8879 603.1128,673.7544 604.2061,673.6221 C604.7527,673.5559 599.3403,674.2108 599.8818,674.1453" fill="none" id="PhysicalState-to-MD" style="stroke:#181818;stroke-width:1;"/><polygon fill="#181818" points="605.8384,673.4246,596.4231,670.5346,600.8746,674.0252,597.384,678.4767,605.8384,673.4246" style="stroke:#181818;stroke-width:1;"/><text fill="#000000" font-family="Microsoft YaHei" font-size="13" lengthAdjust="spacing" textLength="113.5596" x="325.91" y="689.0754">MemberDiskEvent</text></g><!--link PhysicalState to MediaState--><g class="link" data-entity-1="PhysicalState" data-entity-2="MediaState" data-source-line="37" data-uid="lnk21" id="link_PhysicalState_MediaState"><path d="M228.05,733.38 C320.69,744.41 493.5621,764.9807 593.9321,776.9307" fill="none" id="PhysicalState-to-MediaState" style="stroke:#181818;stroke-width:1;"/><polygon fill="#181818" points="599.89,777.64,591.426,772.604,594.9251,777.0489,590.4802,780.5479,599.89,777.64" style="stroke:#181818;stroke-width:1;"/><text fill="#000000" font-family="Microsoft YaHei" font-size="13" lengthAdjust="spacing" textLength="78" x="343.41" y="741.0754">&#24403;&#21069;&#20171;&#36136;&#20107;&#23454;</text></g><!--link Decision to DiskState--><g class="link" data-entity-1="Decision" data-entity-2="DiskState" data-source-line="38" data-uid="lnk22" id="link_Decision_DiskState"><path d="M842.85,584.45 C942.45,582.75 1059.7109,580.7425 1146.3109,579.2625" fill="none" id="Decision-to-DiskState" style="stroke:#181818;stroke-width:1;"/><polygon fill="#181818" points="1152.31,579.16,1143.243,575.3144,1147.3107,579.2454,1143.3797,583.3132,1152.31,579.16" style="stroke:#181818;stroke-width:1;"/><text fill="#000000" font-family="Microsoft YaHei" font-size="13" lengthAdjust="spacing" textLength="185.2119" x="908.68" y="576.0754">io + allocation + membership</text></g><!--link ReconcileActivity to DiskState--><g class="link" data-entity-1="ReconcileActivity" data-entity-2="DiskState" data-source-line="39" data-uid="lnk23" id="link_ReconcileActivity_DiskState"><path d="M785.53,453.28 C890.71,480.78 1042.0452,520.3621 1146.2552,547.6121" fill="none" id="ReconcileActivity-to-DiskState" style="stroke:#181818;stroke-width:1;stroke-dasharray:7,7;"/><polygon fill="#181818" points="1152.06,549.13,1144.3647,542.9833,1147.2226,547.8651,1142.3408,550.723,1152.06,549.13" style="stroke:#181818;stroke-width:1;"/><text fill="#000000" font-family="Microsoft YaHei" font-size="13" lengthAdjust="spacing" textLength="143" x="929.68" y="483.0754">&#19981;&#21442;&#19982;&#25237;&#24433;&#65292;&#20165;&#31649;&#29702;&#25191;&#34892;</text></g><!--link Connectivity to ServiceState--><g class="link" data-entity-1="Connectivity" data-entity-2="ServiceState" data-source-line="40" data-uid="lnk24" id="link_Connectivity_ServiceState"><path d="M225.59,254.53 C319.31,253.23 499.8006,250.7234 599.7906,249.3334" fill="none" id="Connectivity-to-ServiceState" style="stroke:#181818;stroke-width:1;"/><polygon fill="#181818" points="605.79,249.25,596.7353,245.3755,600.7905,249.3195,596.8465,253.3747,605.79,249.25" style="stroke:#181818;stroke-width:1;"/><text fill="#000000" font-family="Microsoft YaHei" font-size="13" lengthAdjust="spacing" textLength="78" x="343.41" y="248.0754">&#24517;&#35201;&#20294;&#19981;&#20805;&#20998;</text></g><!--link Pool to GMN25--><g class="link" data-entity-1="Pool" data-entity-2="GMN25" data-source-line="43" data-uid="lnk27" id="link_Pool_GMN25"><path d="M1222.4763,1023.3518 C1221.866,1023.4529 1221.2501,1023.5538 1220.6287,1023.6545 C1219.3859,1023.8558 1218.121,1024.0559 1216.8351,1024.2542 C1214.2631,1024.6509 1211.6068,1025.0404 1208.8741,1025.4176 C1203.4085,1026.172 1197.6371,1026.8772 1191.6226,1027.4921 C1179.5936,1028.7219 1166.5925,1029.5906 1153.1225,1029.77 C1099.2425,1030.4875 1037.86,1020.175 1001.18,977.82 C875.79,833.01 888.62,701.82 1001.18,546.82 C1029.88,507.31 1077.52,485.91 1124.22,474.45" fill="none" id="Pool-GMN25" style="stroke:#181818;stroke-width:1;stroke-dasharray:7,7;"/></g><!--link PN to GMN28--><g class="link" data-entity-1="PN" data-entity-2="GMN28" data-source-line="47" data-uid="lnk30" id="link_PN_GMN28"><path d="M85.8372,321.5601 C84.8609,321.4041 83.8867,321.239 82.9155,321.0644 C80.973,320.7151 79.0421,320.3278 77.1285,319.8995 C69.4742,318.1863 62.0966,315.818 55.3617,312.6103 C41.8919,306.195 30.9925,296.4225 25.59,281.82 C6,228.88 6,207.76 25.59,154.82 C39.18,118.06 78.7,96.48 112.63,84.34" fill="none" id="PN-GMN28" style="stroke:#181818;stroke-width:1;stroke-dasharray:7,7;"/></g><!--link MD to GMN31--><g class="link" data-entity-1="MD" data-entity-2="GMN31" data-source-line="51" data-uid="lnk33" id="link_MD_GMN31"><path d="M641.2874,673.4451 C638.791,673.9817 636.1769,674.5259 633.4545,675.0714 C611.6753,679.4353 582.9631,683.8781 552.1213,685.1163 C490.4375,687.5925 420.235,677.25 379.94,627.82 C313.53,546.35 319.98,241.15 379.94,154.82 C401.99,123.07 434.41,100.51 469.76,84.48" fill="none" id="MD-GMN31" style="stroke:#181818;stroke-width:1;stroke-dasharray:7,7;"/></g><!--SRC=[TLHRRnD757xVNt7afqGjx3jIAn7M1IJMYR00LVBBU7Ti3rdFh7R6IQsg3xGaD1S8eY0g0KKHbmGaaAYY5k4Q7lfNTjT-wr_ecLbxBmcyZERodUzyyvqp8rSP3qb4-j0ctcet4WFkdnE1Y62znnIrP7xkqmuP1EexmLM3z2dKNEP5GegEWk_91Sfg9Qpi4L-iCzw53WbacSKJ_L1mobLJ3GCA4VKKuTs0MW558YKWOjsU0f_f4oQuPUKGgAq84TI0ID0J-D62WWukiGxrXXuobNSlK1AeNcMhTXQ9rvWQGfCgmpRVi7wgP7DflqqZXybLWt8Taz4dYhI9r6fe99bKr8S22Hr60r_2GjDPMcnnvcD6PBOLev7jaP1uPYL2jBWxR77PYnXV1SOL0cqcR184mYFwvdRViCeU2-qsKtqI6XaEzPZKnbJkj1pIo4IH05OYSJqphyMld0KR73DSnE6A7YxNtUMhTITZGyrDHR3GUFSIdzvtIGZrDLmYpOfcMBxMoDpl3INpI905Vjuo22EsXiT0Vw3UG8k1G8Zi2fS7Q0fsKBM0jNgEd1UanOcUcJOHt6C1CtT4BHxX7WrmmdpCkqwmLIEPaS-Wz0jLrQtJ43xDRj8u9iBDFQzgEoSufxcgzCcBwQtNciMTLQLyNeqqhTgaqHhpg37CuCiRnmGkdQzp5GqDpCoE- -HIdn4JsUAJ- -yApzEZZvFxJxDcpJ6LM0URDy-PaPywzUtibS0PM3eFkBpgw54BpnYjIi5D13w6CwMsDstoELWk0-79-BTawtOysfaU7SOVTfAtVrZpPZRWl1SHomHy1SLRm4Nn6gmJ9ORJfwlXyVlRoTxFyVixwVQ3PFpkltzsuz76vEt-vEvckdKmtT-roWKpsSiLqM8_RKnVteZ7cvfgOoFvTTEokC2Zjb1Az45qZ46M7hAORuel2FvzEFSKPtaZKkw3vZZ9r9ZheVu2NzJouz6pwVwXoM6KyUv2-3LV_3A7wnHkpZuX6vRR4eCp2_477YZSAxu7q0OPEzAZKR9zY9USl1nPawrNw5DMeMJlTVpfIVBcz-JnOVOMxH0be1myZqT_MKKFp71__vdktOq_F9_-Caws7oNtTflcYqjlxYMFFbgJWnlfuwrPqeCnqgSxBt3dX4V_0m00]--></g></svg>